<?xml version="1.0" encoding="utf-8"?>
<!-- Generator: Adobe Illustrator 22.0.1, SVG Export Plug-In . SVG Version: 6.00 Build 0)  -->
<svg version="1.1" id="Capa_1" xmlns="http://www.w3.org/2000/svg" xmlns:xlink="http://www.w3.org/1999/xlink" x="0px" y="0px"
	 viewBox="0 0 124.4 122.3" style="enable-background:new 0 0 124.4 122.3;" xml:space="preserve">
<style type="text/css">
	.st0{fill:#53B92E;}
	.st1{fill:#FFFFFF;}
</style>
<path class="st0" d="M124.4,121.6V61.3h0l-0.1-1.7C121.9,27.3,94.6,2,62.2,2C29.8,2,2.5,27.3,0.2,59.6L0,61.3h0v61"/>
<g>
	<path class="st1" d="M43.9,65.6v4h6.5v2.3h-6.5v6h-2.5V63.3h9.8l0,2.3H43.9z"/>
	<path class="st1" d="M59.4,69c-1.2,0-2,0.4-2.6,1.1s-0.9,1.8-0.9,3V78h-2.4V66.8h2.4v2.2c0.4-0.7,0.9-1.3,1.5-1.7
		c0.7-0.4,1.3-0.7,2.1-0.7l0,2.4C59.5,69,59.4,69,59.4,69z"/>
	<path class="st1" d="M72,73.4h-8.8c0.1,0.8,0.4,1.5,1.1,2c0.7,0.5,1.5,0.7,2.4,0.7c1.4,0,2.5-0.4,3.2-1.3l1.3,1.5
		c-1.2,1.2-2.8,1.9-4.7,1.9c-1.6,0-2.9-0.5-4-1.6c-1.1-1-1.6-2.4-1.6-4.2s0.6-3.2,1.7-4.2c1.1-1,2.4-1.6,4-1.6s2.8,0.5,3.9,1.4
		c1.1,0.9,1.6,2.2,1.6,3.8V73.4z M63.3,71.6h6.4c0-0.9-0.3-1.7-0.9-2.2s-1.3-0.8-2.2-0.8s-1.6,0.3-2.3,0.8
		C63.6,70,63.3,70.7,63.3,71.6z"/>
	<path class="st1" d="M85,73.4h-8.8c0.1,0.8,0.4,1.5,1.1,2c0.7,0.5,1.5,0.7,2.4,0.7c1.4,0,2.5-0.4,3.2-1.3l1.3,1.5
		c-1.2,1.2-2.8,1.9-4.7,1.9c-1.6,0-2.9-0.5-4-1.6c-1.1-1-1.6-2.4-1.6-4.2s0.6-3.2,1.7-4.2s2.4-1.6,4-1.6c1.5,0,2.8,0.5,3.9,1.4
		c1.1,0.9,1.6,2.2,1.6,3.8V73.4z M76.2,71.6h6.4c0-0.9-0.3-1.7-0.9-2.2s-1.3-0.8-2.2-0.8s-1.6,0.3-2.3,0.8
		C76.6,70,76.2,70.7,76.2,71.6z"/>
</g>
<g>
	<path class="st1" d="M28.1,88.5v2.3h-7.8v3.9h7v2.2h-7v3.9h8.1v2.3H17.8V88.5H28.1z"/>
	<path class="st1" d="M39,99.9c0,1.1-0.4,1.9-1.2,2.6c-0.8,0.6-1.8,1-3,1c-0.8,0-1.7-0.1-2.5-0.4c-0.9-0.3-1.6-0.7-2.3-1.2l1.1-1.8
		c1.3,1,2.6,1.5,3.8,1.5c0.5,0,1-0.1,1.3-0.4c0.3-0.2,0.5-0.6,0.5-0.9c0-0.6-0.7-1.1-2.2-1.5c-0.1,0-0.2-0.1-0.3-0.1
		c-2.3-0.6-3.5-1.7-3.5-3.2c0-1,0.4-1.9,1.2-2.5s1.9-0.9,3.1-0.9s2.5,0.4,3.7,1.1l-0.9,1.7c-0.9-0.6-1.9-0.9-3-0.9
		c-0.6,0-1,0.1-1.4,0.3C33.2,94.3,33,94.6,33,95c0,0.4,0.2,0.6,0.5,0.8c0.3,0.1,0.6,0.2,1.1,0.4c0.5,0.1,0.9,0.2,1.2,0.3
		c0.4,0.1,0.7,0.2,1,0.4c0.3,0.1,0.7,0.3,1.1,0.6C38.6,98,39,98.8,39,99.9z"/>
	<path class="st1" d="M44.6,93.9v5.7c0,0.5,0.1,1,0.4,1.3c0.3,0.3,0.7,0.5,1.2,0.5c0.5,0,1-0.2,1.4-0.7l1,1.7
		c-0.8,0.7-1.7,1.1-2.7,1.1c-1,0-1.9-0.3-2.6-1c-0.7-0.7-1.1-1.6-1.1-2.8v-5.6h-1.4V92h1.4v-3.5h2.4V92h2.9v1.9H44.6z"/>
	<path class="st1" d="M50.6,89.8c-0.3-0.3-0.4-0.6-0.4-1c0-0.4,0.1-0.8,0.4-1s0.6-0.4,1-0.4c0.4,0,0.8,0.1,1.1,0.4
		c0.3,0.3,0.4,0.6,0.4,1c0,0.4-0.1,0.8-0.4,1c-0.3,0.3-0.6,0.4-1.1,0.4C51.2,90.2,50.9,90.1,50.6,89.8z M52.8,103.2h-2.4V92h2.4
		V103.2z"/>
	<path class="st1" d="M58.6,97.1v6h-2.4V92h2.4v2c0.3-0.7,0.8-1.2,1.5-1.6c0.7-0.4,1.4-0.6,2.2-0.6c1.8,0,3,0.7,3.6,2.2
		c1.1-1.5,2.5-2.2,4.1-2.2c1.3,0,2.3,0.4,3.1,1.2c0.8,0.8,1.2,1.9,1.2,3.3v6.8h-2.4v-6.1c0-2.1-0.9-3.1-2.6-3.1
		c-0.8,0-1.5,0.3-2.1,0.8c-0.6,0.5-0.9,1.3-0.9,2.2v6.2h-2.4v-6.1c0-1.1-0.2-1.8-0.6-2.3c-0.4-0.5-1-0.7-1.8-0.7
		c-0.8,0-1.5,0.3-2.1,0.8C58.9,95.3,58.6,96.1,58.6,97.1z"/>
	<path class="st1" d="M86.6,103.2h-2.1v-1.5c-0.9,1.1-2.2,1.7-3.7,1.7c-1.2,0-2.1-0.3-2.9-1c-0.8-0.7-1.1-1.5-1.1-2.6
		c0-1.1,0.4-1.9,1.2-2.5c0.8-0.5,1.9-0.8,3.3-0.8h3V96c0-1.5-0.8-2.2-2.5-2.2c-1,0-2.1,0.4-3.2,1.1l-1-1.5c1.4-1.1,2.9-1.6,4.6-1.6
		c1.3,0,2.4,0.3,3.2,1c0.8,0.7,1.2,1.7,1.2,3.1V103.2z M84.2,99v-0.9h-2.6c-1.7,0-2.5,0.5-2.5,1.6c0,0.5,0.2,1,0.6,1.2
		c0.4,0.3,1,0.4,1.8,0.4s1.4-0.2,2-0.6C83.9,100.3,84.2,99.7,84.2,99z"/>
	<path class="st1" d="M92.7,93.9v5.7c0,0.5,0.1,1,0.4,1.3c0.3,0.3,0.7,0.5,1.2,0.5s1-0.2,1.4-0.7l1,1.7c-0.8,0.7-1.7,1.1-2.7,1.1
		s-1.9-0.3-2.6-1c-0.7-0.7-1.1-1.6-1.1-2.8v-5.6H89V92h1.4v-3.5h2.4V92h2.9v1.9H92.7z"/>
	<path class="st1" d="M108.6,98.6h-8.8c0.1,0.8,0.4,1.5,1.1,2c0.7,0.5,1.5,0.7,2.4,0.7c1.4,0,2.5-0.4,3.2-1.3l1.3,1.5
		c-1.2,1.2-2.8,1.9-4.7,1.9c-1.6,0-2.9-0.5-4-1.6c-1.1-1-1.6-2.4-1.6-4.2s0.6-3.2,1.7-4.2s2.4-1.6,4-1.6c1.5,0,2.8,0.5,3.9,1.4
		c1.1,0.9,1.6,2.2,1.6,3.8V98.6z M99.9,96.8h6.4c0-0.9-0.3-1.7-0.9-2.2s-1.3-0.8-2.2-0.8s-1.6,0.3-2.3,0.8
		C100.2,95.2,99.9,95.9,99.9,96.8z"/>
</g>
<polygon class="st1" points="48.4,43.2 62,29.7 75.5,43.2 79.7,39 62,21.3 44.3,39 "/>
</svg>
