<?xml version="1.0" encoding="utf-8"?>
<!-- Generator: Adobe Illustrator 22.0.1, SVG Export Plug-In . SVG Version: 6.00 Build 0)  -->
<svg version="1.1" id="Capa_1" xmlns="http://www.w3.org/2000/svg" xmlns:xlink="http://www.w3.org/1999/xlink" x="0px" y="0px"
	 viewBox="0 0 252 252" style="enable-background:new 0 0 252 252;" xml:space="preserve">
<style type="text/css">
	.st0{fill:#056B18;}
</style>
<g>
	<path class="st0" d="M126,0C56.5,0,0,56.5,0,126s56.5,126,126,126s126-56.5,126-126S195.5,0,126,0z M126,234
		c-59.6,0-108-48.4-108-108S66.4,18,126,18s108,48.4,108,108S185.6,234,126,234z"/>
	<path class="st0" d="M164.6,87.4c-3.5-3.5-9.2-3.5-12.7,0L126,113.3l-25.9-25.9c-3.5-3.5-9.2-3.5-12.7,0s-3.5,9.2,0,12.7l25.9,25.9
		l-25.9,25.9c-3.5,3.5-3.5,9.2,0,12.7c1.8,1.8,4.1,2.6,6.4,2.6s4.6-0.9,6.4-2.6l25.9-25.9l25.9,25.9c1.8,1.8,4.1,2.6,6.4,2.6
		s4.6-0.9,6.4-2.6c3.5-3.5,3.5-9.2,0-12.7L138.7,126l25.9-25.9C168.1,96.6,168.1,90.9,164.6,87.4z"/>
</g>
</svg>
