<?xml version="1.0" encoding="utf-8"?>
<!-- Generator: Adobe Illustrator 22.0.1, SVG Export Plug-In . SVG Version: 6.00 Build 0)  -->
<svg version="1.1" id="Capa_1" xmlns="http://www.w3.org/2000/svg" xmlns:xlink="http://www.w3.org/1999/xlink" x="0px" y="0px"
	 viewBox="0 0 400 196" style="enable-background:new 0 0 400 196;" xml:space="preserve">
<style type="text/css">
	.st0{clip-path:url(#SVGID_2_);fill:#FFFFFF;}
	.st1{clip-path:url(#SVGID_4_);}
	.st2{clip-path:url(#SVGID_6_);fill:#00833E;}
	.st3{clip-path:url(#SVGID_8_);fill:#00833E;}
	.st4{clip-path:url(#SVGID_10_);fill:#76BC21;}
	.st5{clip-path:url(#SVGID_12_);fill:#095540;}
	.st6{clip-path:url(#SVGID_14_);fill:#00833E;}
	.st7{clip-path:url(#SVGID_16_);fill:#76BC21;}
	.st8{clip-path:url(#SVGID_18_);fill:#007936;}
	.st9{clip-path:url(#SVGID_20_);fill:#FFFFFF;}
	.st10{clip-path:url(#SVGID_22_);fill:#FFFFFF;}
	.st11{clip-path:url(#SVGID_24_);fill:#FFFFFF;}
	.st12{clip-path:url(#SVGID_26_);fill:#FFFFFF;}
	.st13{clip-path:url(#SVGID_28_);fill:#FFFFFF;}
	.st14{clip-path:url(#SVGID_30_);fill:#FFFFFF;}
	.st15{clip-path:url(#SVGID_32_);fill:#FFFFFF;}
	.st16{clip-path:url(#SVGID_34_);}
	.st17{clip-path:url(#SVGID_36_);}
	.st18{clip-path:url(#SVGID_38_);}
	.st19{clip-path:url(#SVGID_40_);}
	.st20{clip-path:url(#SVGID_42_);}
	.st21{clip-path:url(#SVGID_44_);}
	.st22{clip-path:url(#SVGID_46_);}
	.st23{clip-path:url(#SVGID_48_);fill:#007936;}
	.st24{clip-path:url(#SVGID_50_);fill:#FFFFFF;}
</style>
<g>
	<g>
		<defs>
			<rect id="SVGID_1_" y="-105" width="400" height="400"/>
		</defs>
		<clipPath id="SVGID_2_">
			<use xlink:href="#SVGID_1_"  style="overflow:visible;"/>
		</clipPath>
		<path class="st0" d="M42.9,62.6c-1.1-0.2-2.1-0.3-3.2-0.3H20.9c-2.3,0.1-4.9,0.3-6.7,2c-0.9,1-1.4,2.2-1.7,3.5
			c-0.2,1.1-0.3,2.2-0.3,3.3v15.3c0.1,2.3,0.3,4.9,2,6.6c1,0.9,2.2,1.5,3.5,1.7c1.1,0.2,2.2,0.3,3.3,0.3h18.7c2.3-0.1,4.9-0.3,6.7-2
			c0.8-0.8,1.6-2.4,1.7-3.6c0.3-4.8,0.4-9.6,0.3-14.5H28v7.6h11.7v4.6H21v-17h18.7v4.7l8.8-1.8l-0.3-5C47.8,65.2,45.7,63,42.9,62.6"
			/>
	</g>
	<g>
		<defs>
			<rect id="SVGID_3_" y="-105" width="400" height="400"/>
		</defs>
		<clipPath id="SVGID_4_">
			<use xlink:href="#SVGID_3_"  style="overflow:visible;"/>
		</clipPath>
		<path class="st1" d="M42.7,63.5c-1-0.2-2-0.3-3.1-0.3H21l-2.7,0.2c-1.1,0.1-2.5,0.7-3.3,1.5c-0.7,0.8-1.2,1.9-1.4,3
			c-0.2,1-0.3,2.1-0.3,3.1v15.2l0.2,2.7c0.1,1.1,0.7,2.5,1.5,3.3s1.9,1.3,3,1.5c1,0.2,2.1,0.3,3.1,0.3h18.7l2.7-0.2
			c1.1-0.1,2.5-0.7,3.3-1.5c0.7-0.8,1.2-1.9,1.4-3c0.3-1.9,0.3-10.5,0.3-13.4H29v5.6h11.7V88H20V69h20.6v4.4l6.8-1.4l-0.3-4.1
			C46.9,65.7,45.1,63.8,42.7,63.5"/>
	</g>
	<g>
		<defs>
			<rect id="SVGID_5_" y="-105" width="400" height="400"/>
		</defs>
		<clipPath id="SVGID_6_">
			<use xlink:href="#SVGID_5_"  style="overflow:visible;"/>
		</clipPath>
		<polygon class="st2" points="180.2,29.6 232.4,29.6 252.1,2 180.2,2 		"/>
	</g>
	<g>
		<defs>
			<rect id="SVGID_7_" y="-105" width="400" height="400"/>
		</defs>
		<clipPath id="SVGID_8_">
			<use xlink:href="#SVGID_7_"  style="overflow:visible;"/>
		</clipPath>
		<polygon class="st3" points="144.9,191 219.2,191 254,156.4 177.1,156.4 		"/>
	</g>
	<g>
		<defs>
			<rect id="SVGID_9_" y="-105" width="400" height="400"/>
		</defs>
		<clipPath id="SVGID_10_">
			<use xlink:href="#SVGID_9_"  style="overflow:visible;"/>
		</clipPath>
		<polygon class="st4" points="220.1,118.2 252.1,80.1 252.1,153.4 220.1,153.4 		"/>
	</g>
	<g>
		<defs>
			<rect id="SVGID_11_" y="-105" width="400" height="400"/>
		</defs>
		<clipPath id="SVGID_12_">
			<use xlink:href="#SVGID_11_"  style="overflow:visible;"/>
		</clipPath>
		<polygon class="st5" points="219.7,77.1 252.1,77.1 253.6,77.1 255.1,77.1 255.1,156.4 253.6,156.4 252.1,156.4 180.1,156.4 
			178.3,156.4 177.1,156.4 177.1,-1 178.3,-1 180.1,-1 252.1,-1 252.1,2 180.1,2 180.1,153.4 252.1,153.4 252.1,80.1 219.7,80.1 		
			"/>
	</g>
	<g>
		<defs>
			<rect id="SVGID_13_" y="-105" width="400" height="400"/>
		</defs>
		<clipPath id="SVGID_14_">
			<use xlink:href="#SVGID_13_"  style="overflow:visible;"/>
		</clipPath>
		<polygon class="st6" points="186.2,118.5 220,118.5 252.1,80.1 219.7,80.1 		"/>
	</g>
	<g>
		<defs>
			<rect id="SVGID_15_" y="-105" width="400" height="400"/>
		</defs>
		<clipPath id="SVGID_16_">
			<use xlink:href="#SVGID_15_"  style="overflow:visible;"/>
		</clipPath>
		<polygon class="st7" points="177.1,156.5 177.1,-1 144.9,29.9 145,190.9 		"/>
	</g>
	<g>
		<defs>
			<rect id="SVGID_17_" y="-105" width="400" height="400"/>
		</defs>
		<clipPath id="SVGID_18_">
			<use xlink:href="#SVGID_17_"  style="overflow:visible;"/>
		</clipPath>
		<rect x="12.9" y="101.8" class="st8" width="374.2" height="24.9"/>
	</g>
	<g>
		<defs>
			<rect id="SVGID_19_" y="-105" width="400" height="400"/>
		</defs>
		<clipPath id="SVGID_20_">
			<use xlink:href="#SVGID_19_"  style="overflow:visible;"/>
		</clipPath>
		<polygon class="st9" points="70.8,76.4 81.1,90.5 84.4,90.5 93.9,76.4 93.9,95 102.2,95 102.2,62.3 94.9,62.3 82.7,79.7 
			69.8,62.3 62.9,62.3 62.9,95 70.9,95 		"/>
	</g>
	<g>
		<defs>
			<rect id="SVGID_21_" y="-105" width="400" height="400"/>
		</defs>
		<clipPath id="SVGID_22_">
			<use xlink:href="#SVGID_21_"  style="overflow:visible;"/>
		</clipPath>
		<path class="st10" d="M126.3,70.1h20v17h-20V70.1z M117.6,71.1v15.2c0.1,2.3,0.3,4.9,2,6.7c1,0.9,2.2,1.5,3.5,1.7
			c1.1,0.2,2.2,0.3,3.3,0.3h20c2.2,0,5-0.3,6.6-2c0.9-1,1.5-2.2,1.7-3.5c0.4-2.2,0.3-15.1,0.3-18.5c0-4.4-1.3-7.9-5.5-8.4
			c-1.1-0.2-2.1-0.3-3.2-0.3h-20c-2.3,0.1-4.9,0.3-6.7,2C118,65.8,117.5,68.8,117.6,71.1"/>
	</g>
	<g>
		<defs>
			<rect id="SVGID_23_" y="-105" width="400" height="400"/>
		</defs>
		<clipPath id="SVGID_24_">
			<use xlink:href="#SVGID_23_"  style="overflow:visible;"/>
		</clipPath>
		<path class="st11" d="M194.8,74.3c-5.5,0-11,0-16.5,0v-4.2h16.5V74.3z M177.3,82.3h17.6v4.8h-17.6V82.3z M197.3,62.6
			c-1.1-0.2-2.1-0.3-3.2-0.3h-15.4c-5.7,0.2-8.2,1.8-8.5,7.6c-0.3,5.6-0.6,11.4,6.3,12.3l-7.6,1.8l0.3,5.2c0.1,1.3,0.8,3,1.8,3.9
			s2.2,1.5,3.5,1.7c1.1,0.2,2.2,0.3,3.3,0.3h16.9c2.3-0.1,4.9-0.3,6.6-2c2.6-2.6,2.1-9.2,1.7-12.8c-0.4-3.6-2.8-5.4-6.3-5.8l6.2-1.8
			l-0.3-4.8C202.2,65.1,200,63,197.3,62.6"/>
	</g>
	<g>
		<defs>
			<rect id="SVGID_25_" y="-105" width="400" height="400"/>
		</defs>
		<clipPath id="SVGID_26_">
			<use xlink:href="#SVGID_25_"  style="overflow:visible;"/>
		</clipPath>
		<path class="st12" d="M251.3,68.3c-0.2-2.9-2.4-5.3-5.3-5.7h-0.1l-10.5-0.3l-11.6,0.2c-1.3,0.1-3,0.9-3.9,1.8
			c-0.9,1-1.5,2.2-1.7,3.5c-0.2,1.1-0.3,2.2-0.3,3.3v15.3c0.1,2.3,0.2,4.9,2,6.7c1,0.9,2.2,1.5,3.5,1.7c1.1,0.2,2.2,0.3,3.3,0.3H243
			c2.3-0.1,4.9-0.3,6.6-2c2.3-2.3,2.2-8.6,1.9-11.8l-8.6-1.8v7.7h-16.1v-17h16.1v6.9l8.7-1.6V71L251.3,68.3z"/>
	</g>
	<g>
		<defs>
			<rect id="SVGID_27_" y="-105" width="400" height="400"/>
		</defs>
		<clipPath id="SVGID_28_">
			<use xlink:href="#SVGID_27_"  style="overflow:visible;"/>
		</clipPath>
		<path class="st13" d="M274.9,80.3l4.5-8.7l4.6,8.7H274.9z M258,95h9.2l3.7-7.1H288l3.7,7.1h9.8l-18.2-32.7h-7.4L258,95z"/>
	</g>
	<g>
		<defs>
			<rect id="SVGID_29_" y="-105" width="400" height="400"/>
		</defs>
		<clipPath id="SVGID_30_">
			<use xlink:href="#SVGID_29_"  style="overflow:visible;"/>
		</clipPath>
		<path class="st14" d="M334.4,70l0.1,1.1v4.8c-0.6,0.1-14.8,0.1-15.7,0.1v-6.2l15.5,0.1L334.4,70z M343,79.1
			c0.3-0.9,0.4-1.9,0.4-2.9v-6.5l-0.3-2.4c-0.5-2.4-2.4-4.3-4.8-4.7c-1-0.2-2-0.3-3-0.3h-25.2V95h8.7V83.8h16.5c1.5,0,3-0.3,4.5-0.8
			C341.4,82.3,342.6,80.8,343,79.1"/>
	</g>
	<g>
		<defs>
			<rect id="SVGID_31_" y="-105" width="400" height="400"/>
		</defs>
		<clipPath id="SVGID_32_">
			<use xlink:href="#SVGID_31_"  style="overflow:visible;"/>
		</clipPath>
		<polygon class="st15" points="355.8,95 387.7,95 387.7,87.2 364.5,87.2 364.5,81.9 378.6,81.9 378.6,74.2 364.5,74.2 364.5,70 
			387.5,70 387.5,62.3 355.8,62.3 		"/>
	</g>
	<g>
		<defs>
			<rect id="SVGID_33_" y="-105" width="400" height="400"/>
		</defs>
		<clipPath id="SVGID_34_">
			<use xlink:href="#SVGID_33_"  style="overflow:visible;"/>
		</clipPath>
		<polygon class="st16" points="69.9,73.5 81.6,89.5 83.9,89.5 94.9,73.3 94.9,94 101.3,94 101.3,63.3 95.4,63.3 82.8,81.3 
			69.3,63.3 63.9,63.3 63.9,94 69.9,94 		"/>
	</g>
	<g>
		<defs>
			<rect id="SVGID_35_" y="-105" width="400" height="400"/>
		</defs>
		<clipPath id="SVGID_36_">
			<use xlink:href="#SVGID_35_"  style="overflow:visible;"/>
		</clipPath>
		<path class="st17" d="M125.3,69.1h21.9v19h-21.9C125.3,88.1,125.3,69.1,125.3,69.1z M118.5,71.1v15.2l0.2,2.7
			c0.1,1.1,0.7,2.5,1.5,3.3s1.9,1.3,3,1.5c1,0.2,2.1,0.3,3.1,0.3h20c2-0.1,4.4-0.2,6-1.7c0.8-0.8,1.2-1.9,1.4-3
			c0.2-1,0.3-2.1,0.3-3.1V71c-0.1-3.6-0.8-6.8-4.6-7.5c-1-0.2-2-0.3-3.1-0.3h-20l-2.7,0.2c-1.1,0.1-2.5,0.7-3.3,1.5
			C118.8,66.4,118.5,69.1,118.5,71.1"/>
	</g>
	<g>
		<defs>
			<rect id="SVGID_37_" y="-105" width="400" height="400"/>
		</defs>
		<clipPath id="SVGID_38_">
			<use xlink:href="#SVGID_37_"  style="overflow:visible;"/>
		</clipPath>
		<path class="st18" d="M197.1,63.5c-1-0.2-2-0.3-3-0.3h-15.4l-2.7,0.2c-1.1,0.1-2.5,0.7-3.3,1.5c-2.2,2.2-1.7,8.3-1.5,11.3
			c0.1,1.1,0.7,2.6,1.5,3.4c0.8,0.8,1.8,1.3,3,1.5c1,0.2,2,0.3,3.1,0.3h17.1v6.7h-19.5v-4.9l-6.5,1.5l0.3,4.3
			c0.1,1.1,0.7,2.5,1.5,3.3s1.9,1.3,3,1.4c1,0.2,2.1,0.3,3.1,0.3h16.9l2.7-0.2c1.1-0.1,2.5-0.7,3.3-1.5c2.3-2.3,1.7-9.2,1.5-12
			c-0.2-2.4-2-4.4-4.4-4.8c-1-0.2-2-0.3-3-0.3h-17.2v-6.1h18.5v4.5l6.1-1.7c0-1-0.1-2.8-0.2-3.9C201.3,65.7,199.5,63.8,197.1,63.5"
			/>
	</g>
	<g>
		<defs>
			<rect id="SVGID_39_" y="-105" width="400" height="400"/>
		</defs>
		<clipPath id="SVGID_40_">
			<use xlink:href="#SVGID_39_"  style="overflow:visible;"/>
		</clipPath>
		<path class="st19" d="M250.4,68.4c-0.1-2.5-2-4.5-4.4-4.8c-2.4-0.4-19.4-0.3-21.9-0.1c-1.1,0.1-2.5,0.7-3.3,1.5
			c-0.7,0.8-1.2,1.9-1.4,3c-0.2,1-0.3,2.1-0.3,3.1v15.2l0.2,2.7c0.1,1.1,0.7,2.5,1.5,3.3s1.9,1.3,3,1.4c1,0.2,2.1,0.3,3.1,0.3h16.2
			l2.7-0.2c1.1-0.1,2.5-0.7,3.3-1.5c2-2,1.7-8,1.7-10.3l-6.8-1.4V88h-18.1V69H244v6.7l6.8-1.3V71L250.4,68.4z"/>
	</g>
	<g>
		<defs>
			<rect id="SVGID_41_" y="-105" width="400" height="400"/>
		</defs>
		<clipPath id="SVGID_42_">
			<use xlink:href="#SVGID_41_"  style="overflow:visible;"/>
		</clipPath>
		<path class="st20" d="M273.3,81.3l6.1-11.7l6.2,11.7H273.3z M259.6,94h7l3.7-7.1h18.3l3.7,7.1h7.5l-17.1-30.8h-6.3L259.6,94z"/>
	</g>
	<g>
		<defs>
			<rect id="SVGID_43_" y="-105" width="400" height="400"/>
		</defs>
		<clipPath id="SVGID_44_">
			<use xlink:href="#SVGID_43_"  style="overflow:visible;"/>
		</clipPath>
		<path class="st21" d="M334.5,69c0.2,0,0.5,0.1,0.7,0.3c0.5,0.5,0.4,5.8,0.3,6.7c-0.1,1.1-1.3,1-2.1,1h-15.5v-8.1L334.5,69z
			 M342,78.9c0.2-0.9,0.4-1.8,0.3-2.6v-6.5l-0.3-2.3c-0.4-2-2-3.6-4.1-3.9c-0.9-0.2-1.8-0.3-2.8-0.3h-24.2V94h6.8V82.8h17.5
			C338.2,82.7,341.2,82.2,342,78.9"/>
	</g>
	<g>
		<defs>
			<rect id="SVGID_45_" y="-105" width="400" height="400"/>
		</defs>
		<clipPath id="SVGID_46_">
			<use xlink:href="#SVGID_45_"  style="overflow:visible;"/>
		</clipPath>
		<polygon class="st22" points="356.8,94 386.7,94 386.7,88.1 363.6,88.1 363.6,80.9 377.6,80.9 377.6,75.1 363.6,75.1 363.6,69.1 
			386.5,69.1 386.5,63.3 356.8,63.3 		"/>
	</g>
	<g>
		<defs>
			<rect id="SVGID_47_" y="-105" width="400" height="400"/>
		</defs>
		<clipPath id="SVGID_48_">
			<use xlink:href="#SVGID_47_"  style="overflow:visible;"/>
		</clipPath>
		<path class="st23" d="M357.8,93.1V64.3h27.8v3.9h-22.9v8h14V80h-14v9.2h23.2v4L357.8,93.1L357.8,93.1z M312.1,93.1V64.3h23.2
			c2.2,0,3.7,0.4,4.7,1.3c1,0.9,1.4,2.3,1.4,4.3v6.4c0,1.9-0.5,3.4-1.4,4.2c-1,0.9-2.5,1.3-4.7,1.3h-18.4V93h-4.8V93.1z M333.4,68
			h-16.5v10h16.5c1.2,0,2-0.2,2.4-0.7s0.7-1.2,0.7-2.3v-4c0-1.1-0.2-1.9-0.7-2.3C335.4,68.2,334.6,68,333.4,68 M261.2,93.1
			l15.7-28.8h5.2l16,28.8h-5.3l-3.7-7.1h-19.5l-3.7,7.1H261.2z M271.7,82.3h15.5l-7.8-14.8L271.7,82.3z M244.8,68.1h-20V89h20v-7.2
			l4.8,1v3.4c0,2.7-0.5,4.5-1.4,5.4s-2.7,1.4-5.3,1.4h-16.1c-2.6,0-4.4-0.5-5.4-1.4c-0.9-0.9-1.4-2.7-1.4-5.4V71
			c0-2.6,0.5-4.4,1.4-5.4s2.7-1.4,5.4-1.4h16.1c2.6,0,4.4,0.5,5.3,1.4c0.9,0.9,1.4,2.7,1.4,5.4v2.7l-4.8,0.9V68.1z M196.7,68.1
			h-20.4v8h18.2c2.6,0,4.3,0.5,5.3,1.4c0.9,1,1.4,2.7,1.4,5.4v3.2c0,2.7-0.5,4.5-1.4,5.4s-2.7,1.4-5.3,1.4h-16.8
			c-2.6,0-4.4-0.5-5.4-1.4c-0.9-0.9-1.4-2.7-1.4-5.4v-0.8l4.5-1v4.6h21.5v-8.7h-18.1c-2.6,0-4.4-0.5-5.3-1.4c-0.9-1-1.4-2.7-1.4-5.4
			V71c0-2.6,0.5-4.4,1.4-5.4s2.7-1.4,5.3-1.4h15.4c2.6,0,4.3,0.5,5.3,1.4s1.5,2.6,1.5,4.9v0.6l-4.1,1.2v-4.2H196.7z M119.5,71
			c0-2.6,0.5-4.4,1.4-5.4s2.7-1.4,5.4-1.4h19.9c2.6,0,4.4,0.5,5.3,1.4c0.9,0.9,1.4,2.7,1.4,5.4v15.2c0,2.7-0.5,4.5-1.4,5.4
			s-2.7,1.4-5.3,1.4h-19.9c-2.6,0-4.4-0.5-5.4-1.4c-0.9-1-1.4-2.8-1.4-5.4C119.5,86.2,119.5,71,119.5,71z M124.3,89h23.9V68.1h-23.9
			C124.3,68.1,124.3,89,124.3,89z M68.7,69.4c0.1,0.6,0.1,1.2,0.2,1.8c0,0.6,0.1,1.4,0.1,2.5v19.4h-4.1V64.3h3.9l14,18.8l13.1-18.8
			h4.4v28.8h-4.4V73.7c0-0.3,0-0.9,0.1-1.9s0.1-1.8,0.1-2.3c-0.4,0.7-0.7,1.4-1,1.9s-0.5,0.9-0.7,1.2l-11,16h-1.2L70.7,73
			c0,0-0.1-0.1-0.1-0.2C69.7,71.6,69.1,70.5,68.7,69.4 M41.6,68.1H19.1V89h22.6v-8.4H30v-3.7h16.5v9.3c0,2.6-0.5,4.4-1.4,5.4
			c-1,1-2.7,1.4-5.4,1.4H21c-2.6,0-4.4-0.5-5.4-1.4c-0.9-1-1.4-2.8-1.4-5.4V71c0-2.6,0.5-4.4,1.4-5.4s2.7-1.4,5.4-1.4h18.6
			c2.6,0,4.4,0.5,5.3,1.4c1,0.9,1.4,2.6,1.4,5.1v0.7l-4.8,1L41.6,68.1L41.6,68.1z"/>
	</g>
	<g>
		<defs>
			<rect id="SVGID_49_" y="-105" width="400" height="400"/>
		</defs>
		<clipPath id="SVGID_50_">
			<use xlink:href="#SVGID_49_"  style="overflow:visible;"/>
		</clipPath>
		<path class="st24" d="M350.3,110c-0.7-0.8-1.5-1.4-2.3-1.7c-0.8-0.4-1.7-0.6-2.7-0.6c-0.8,0-1.6,0.2-2.3,0.5
			c-0.8,0.3-1.4,0.8-2,1.3c-0.6,0.6-1,1.3-1.3,2s-0.4,1.5-0.4,2.4c0,0.7,0.1,1.3,0.3,1.9c0.2,0.6,0.4,1.1,0.8,1.6
			c0.6,0.9,1.3,1.5,2.2,2c0.9,0.5,1.8,0.7,2.8,0.7s1.8-0.2,2.7-0.6c0.8-0.4,1.6-1,2.2-1.8v2.4c-0.7,0.5-1.5,0.9-2.4,1.2
			s-1.7,0.4-2.7,0.4c-0.8,0-1.6-0.1-2.3-0.4c-0.7-0.2-1.5-0.6-2.1-1c-1.1-0.8-1.9-1.7-2.5-2.8s-0.9-2.3-0.9-3.7
			c0-1.2,0.2-2.2,0.6-3.2c0.4-0.9,1-1.8,1.8-2.6c0.8-0.7,1.6-1.3,2.5-1.7s1.9-0.6,3-0.6c0.9,0,1.7,0.1,2.5,0.4
			c0.8,0.3,1.6,0.7,2.4,1.2L350.3,110L350.3,110z M319,121.4v-15h1.8v13.3h5.7v1.7H319z M299.8,121.4v-15h1.8v13.3h5.7v1.7H299.8z
			 M265.6,107.9v5h1.4c1.4,0,2.3-0.2,2.8-0.5c0.5-0.4,0.7-1,0.7-1.9c0-1-0.2-1.6-0.7-2s-1.4-0.6-2.8-0.6H265.6z M263.8,121.4v-15
			h3.5c1,0,1.7,0.1,2.2,0.2c0.5,0.1,0.9,0.3,1.2,0.6c0.4,0.3,0.8,0.8,1,1.4c0.2,0.6,0.4,1.2,0.4,1.9c0,1.2-0.3,2.2-1,2.8s-1.7,1-3,1
			h-0.3l5.7,7.2h-2.3l-5.5-7.2h-0.3v7.2L263.8,121.4L263.8,121.4z M251.3,113.9c0,1.1-0.2,2.1-0.6,3c-0.4,1-1,1.8-1.7,2.5
			c-0.8,0.7-1.6,1.3-2.6,1.7s-2,0.6-3.1,0.6s-2.1-0.2-3.1-0.6c-1-0.4-1.9-1-2.6-1.7c-0.8-0.7-1.3-1.6-1.7-2.5s-0.6-2-0.6-3
			c0-1.1,0.2-2.1,0.6-3c0.4-1,1-1.8,1.7-2.6c0.8-0.7,1.6-1.3,2.6-1.7s2-0.6,3.1-0.6s2.1,0.2,3.1,0.6c1,0.4,1.9,1,2.6,1.7
			c0.8,0.7,1.3,1.6,1.7,2.5C251.1,111.8,251.3,112.9,251.3,113.9 M243.3,120.1c0.8,0,1.6-0.2,2.3-0.5s1.4-0.8,2-1.4
			c0.6-0.6,1-1.3,1.3-2s0.5-1.5,0.5-2.4c0-0.8-0.2-1.6-0.5-2.4c-0.3-0.8-0.8-1.4-1.3-2c-0.6-0.6-1.3-1-2-1.3s-1.5-0.5-2.4-0.5
			c-0.8,0-1.6,0.2-2.4,0.5c-0.7,0.3-1.4,0.8-2,1.3c-0.6,0.6-1,1.3-1.3,2c-0.3,0.8-0.5,1.5-0.5,2.4c0,0.8,0.2,1.6,0.5,2.4
			c0.3,0.7,0.8,1.4,1.3,2c0.6,0.6,1.3,1.1,2,1.4C241.7,120,242.5,120.1,243.3,120.1 M219.6,121.4v-13.3h-4.2v-1.7h10.3v1.7h-4.2
			v13.3H219.6z M204.3,110c-0.7-0.8-1.5-1.4-2.3-1.7c-0.8-0.4-1.7-0.6-2.7-0.6c-0.8,0-1.6,0.2-2.3,0.5c-0.8,0.3-1.4,0.8-2,1.3
			c-0.6,0.6-1,1.3-1.3,2s-0.4,1.5-0.4,2.4c0,0.7,0.1,1.3,0.3,1.9c0.2,0.6,0.4,1.1,0.8,1.6c0.6,0.9,1.3,1.5,2.2,2s1.8,0.7,2.8,0.7
			s1.8-0.2,2.7-0.6c0.8-0.4,1.6-1,2.2-1.8v2.4c-0.7,0.5-1.5,0.9-2.4,1.2s-1.7,0.4-2.7,0.4c-0.8,0-1.6-0.1-2.3-0.4
			c-0.8-0.2-1.5-0.6-2.1-1c-1.1-0.8-1.9-1.7-2.5-2.8s-0.9-2.3-0.9-3.7c0-1.2,0.2-2.2,0.6-3.2c0.4-0.9,1-1.8,1.8-2.6
			c0.8-0.7,1.6-1.3,2.5-1.7s1.9-0.6,3-0.6c0.9,0,1.7,0.1,2.5,0.4c0.8,0.3,1.6,0.7,2.4,1.2L204.3,110L204.3,110z M174.6,105.8
			l6.8,15.6h-1.9l-2-4.6h-5.9l-1.9,4.6h-1.9L174.6,105.8z M174.6,109.8l-2.4,5.5h4.8L174.6,109.8z M150.8,107.9v5h1.4
			c1.4,0,2.3-0.2,2.8-0.5c0.5-0.4,0.7-1,0.7-1.9c0-1-0.2-1.6-0.7-2s-1.4-0.6-2.8-0.6H150.8z M149,121.4v-15h3.5c1,0,1.7,0.1,2.2,0.2
			c0.5,0.1,0.9,0.3,1.2,0.6c0.4,0.3,0.8,0.8,1,1.4c0.2,0.6,0.4,1.2,0.4,1.9c0,1.2-0.3,2.2-1,2.8s-1.7,1-3,1H153l5.7,7.2h-2.3
			l-5.5-7.2h-0.3v7.2L149,121.4L149,121.4z M131.5,121.4v-13.3h-4.2v-1.7h10.3v1.7h-4.2v13.3H131.5z M103,121.4v-15.6l11,12v-11.4
			h1.7V122l-11-11.9v11.3L103,121.4L103,121.4z M90.6,113.9c0,1.1-0.2,2.1-0.6,3c-0.4,1-1,1.8-1.7,2.5c-0.8,0.7-1.6,1.3-2.6,1.7
			s-2,0.6-3.1,0.6s-2.1-0.2-3.1-0.6c-1-0.4-1.9-1-2.6-1.7c-0.8-0.7-1.3-1.6-1.7-2.5c-0.4-0.9-0.6-2-0.6-3c0-1.1,0.2-2.1,0.6-3
			c0.4-1,1-1.8,1.7-2.6c0.8-0.7,1.6-1.3,2.6-1.7s2-0.6,3.1-0.6s2.1,0.2,3.1,0.6c1,0.4,1.9,1,2.6,1.7c0.8,0.7,1.3,1.6,1.7,2.5
			C90.4,111.8,90.6,112.9,90.6,113.9 M82.5,120.1c0.8,0,1.6-0.2,2.3-0.5c0.7-0.3,1.4-0.8,2-1.4c0.6-0.6,1-1.3,1.3-2s0.5-1.5,0.5-2.4
			c0-0.8-0.2-1.6-0.5-2.4c-0.3-0.8-0.8-1.4-1.3-2c-0.6-0.6-1.3-1-2-1.3s-1.5-0.5-2.4-0.5c-0.8,0-1.6,0.2-2.4,0.5
			c-0.7,0.3-1.4,0.8-2,1.3c-0.6,0.6-1,1.3-1.3,2c-0.3,0.8-0.5,1.5-0.5,2.4c0,0.8,0.2,1.6,0.5,2.4c0.3,0.7,0.8,1.4,1.3,2
			c0.6,0.6,1.3,1.1,2,1.4C80.9,120,81.7,120.1,82.5,120.1 M62.6,110c-0.7-0.8-1.5-1.4-2.3-1.7c-0.8-0.4-1.7-0.6-2.7-0.6
			c-0.8,0-1.6,0.2-2.3,0.5c-0.8,0.3-1.4,0.8-2,1.3c-0.6,0.6-1,1.3-1.3,2s-0.4,1.5-0.4,2.4c0,0.7,0.1,1.3,0.3,1.9
			c0.2,0.6,0.4,1.1,0.8,1.6c0.6,0.9,1.3,1.5,2.2,2s1.8,0.7,2.8,0.7s1.8-0.2,2.7-0.6c0.8-0.4,1.6-1,2.2-1.8v2.4
			c-0.7,0.5-1.5,0.9-2.4,1.2s-1.7,0.4-2.7,0.4c-0.8,0-1.6-0.1-2.3-0.4c-0.7-0.2-1.5-0.6-2.1-1c-1.1-0.8-1.9-1.7-2.5-2.8
			s-0.9-2.3-0.9-3.7c0-1.2,0.2-2.2,0.6-3.2c0.4-0.9,1-1.8,1.8-2.6c0.8-0.7,1.6-1.3,2.5-1.7s1.9-0.6,3-0.6c0.9,0,1.7,0.1,2.5,0.4
			c0.8,0.3,1.6,0.7,2.4,1.2v2.7H62.6z"/>
	</g>
</g>
</svg>
