<?xml version="1.0" encoding="utf-8"?>
<!-- Generator: Adobe Illustrator 22.0.1, SVG Export Plug-In . SVG Version: 6.00 Build 0)  -->
<svg version="1.1" id="Capa_1" xmlns="http://www.w3.org/2000/svg" xmlns:xlink="http://www.w3.org/1999/xlink" x="0px" y="0px"
	 viewBox="0 0 116.9 109.5" style="enable-background:new 0 0 116.9 109.5;" xml:space="preserve">
<style type="text/css">
	.st0{fill:#0E7B42;}
</style>
<g>
	<path class="st0" d="M65,85.6c0-1.8,0-3.7,0-5.5c0-2.5,0-5,0-7.6"/>
	<path class="st0" d="M83.4,42.8c-5.4,3.8-9.3,3.8-14.2,0.1c-1.2,0.7-2.5,1.4-3.7,2.1c-0.3,0.2-0.5,0.7-0.5,1.1c0,7.1,0,14.1,0,21.2
		c0,0.2,0.1,0.3,0.2,0.6c0.6,0,1.2,0.1,1.8,0.1c6.3,0,12.6,0,18.8,0c0.7,0,1.4,0,2,0.2c1.5,0.4,2.3,1.5,2.2,3
		c-0.1,1.5-0.9,2.5-2.4,2.8c-0.6,0.1-1.2,0.1-1.8,0.1c-6.2,0-12.4,0-18.7,0h-2v21.5h12c0-1.8,0-3.7,0-5.5c0-2.5,0-5,0-7.6
		c0-2.5,1.1-3.6,3.6-3.6c3.6,0,7.2,0,10.8,0h2v-2c0-6,0-12,0-18c0-2.4,1-3.6,3-3.6c1.9,0,3.1,1.3,3.1,3.6c0,13.1,0,26.2,0,39.3
		c0,2.3-1.2,3.5-3.5,3.5c-25.9,0-51.8,0-77.7,0c-2.1,0-3.5-1.2-3.5-3c0-1.8,1.3-3,3.5-3c1.8,0,3.7,0,5.5-0.1c0.1,0,0.1,0,0.4-0.1
		c0-0.5,0.1-1.1,0.1-1.7c0-11.6,0-23.2,0-34.8c0-2.2,0.9-3.5,2.6-3.7c2-0.3,3.5,1,3.5,3.3c0,6.1,0,12.1,0,18.2v2
		c0.6,0,1.2,0.1,1.7,0.1c3.5,0,6.9,0,10.4,0c3.3,0,4.2,0.9,4.2,4.2c0,4.1,0,8.3,0,12.5h12V74.2c-0.7,0-1.4-0.1-2.1-0.1
		c-6.2,0-12.3,0-18.5,0c-0.7,0-1.4,0-2-0.1c-1.5-0.3-2.3-1.4-2.3-2.9c0-1.4,0.7-2.5,2.1-2.9c0.6-0.2,1.3-0.2,2-0.2
		c6.2,0,12.4,0,18.7,0h2.1c0-0.6,0.1-1.1,0.1-1.6c0-6.6,0-13.1,0-19.7c0-1.1-0.2-1.7-1.3-2.1c-1-0.4-1.9-1.1-2.9-1.7
		c-4.4,3.4-9,4-14.3,0c-0.2,0.2-0.5,0.3-0.8,0.5c-3.3,2.6-7,3-10.7,1.2c-3.8-1.8-5.7-4.9-5.9-9.1c0-0.1,0-0.1,0-0.2
		c-0.6-3.6,0.8-5.8,4.1-7.6c10.9-6.1,21.5-12.6,32.2-19c1.8-1.1,3.3-1.1,5.1,0c11.3,6.8,22.7,13.5,34.1,20.2c1.7,1,2.4,2.3,2.4,4.2
		c0,3.1-0.2,6.2-2.3,8.7c-3.6,4.4-9.6,5.1-14.1,1.8C84.1,43.3,83.8,43.1,83.4,42.8 M94.7,34.5c-0.1-0.2-0.4-1-1-1.3
		C83.5,27,73.1,20.9,62.8,14.8c-0.5-0.3-1.3-0.3-1.8-0.1C50.7,20.9,40.3,27,30,33.2c-0.5,0.3-0.9,1-0.9,1.6
		c-0.2,2.7,1.5,4.6,3.9,4.8c2.3,0.2,4.1-1.5,4.4-4.3c0.2-1.7,1.4-2.8,3-2.9c1.6,0,2.9,1.2,3.1,2.9c0.3,2.6,1.9,4.2,4.1,4.3
		c2.2,0,3.8-1.5,4.2-4c0.3-2.1,1.4-3.2,3-3.2c1.7,0,2.8,1.2,3.1,3.3c0.3,2.3,2,3.9,4.1,3.9c2.1,0,3.7-1.5,4.1-3.9
		c0.3-2,1.3-3.2,3-3.3c1.7-0.1,2.8,1.1,3.2,3.2c0.4,2.5,2,4,4.2,4c2.2-0.1,3.8-1.6,4-4.1c0.2-1.8,1.4-3,3-3c1.7,0,2.9,1.2,3.1,3.1
		c0.3,2.5,2,4.2,4.3,4.1C93,39.5,94.6,37.7,94.7,34.5 M83.2,95.6h10V85.1h-10V95.6z M40.5,85.1h-10v10.6h10V85.1z"/>
</g>
</svg>
