<svg xmlns="http://www.w3.org/2000/svg" viewBox="0 0 325.25 76"><defs><style>.cls-1{fill:#fff;}</style></defs><g id="Capa_2" data-name="Capa 2"><g id="Capa_1-2" data-name="Capa 1"><path class="cls-1" d="M325.25,59.64a6.71,6.71,0,0,0-.13.76c0,1.11,0,2.22,0,3.34,0,1.39-.06,2.78-.1,4.17a2.19,2.19,0,0,1,0,.28l-.06.06a.07.07,0,0,1-.05,0l-.48,0H292.59s-.07,0-.18-.1c.08-.1.15-.24.23-.26a5.86,5.86,0,0,1,.73,0,13.44,13.44,0,0,0,3.28-.45A2.74,2.74,0,0,0,299,64.6c0-.22,0-.44,0-.66q0-14.88,0-29.76a8.91,8.91,0,0,0-.1-1.26,2.46,2.46,0,0,0-1.64-2.07,9,9,0,0,0-2.71-.58c-.6-.06-1.21-.08-1.81-.13a1.28,1.28,0,0,1-.32-.14c.14-.07.2-.14.26-.14h30.7c0,.21.05.37.05.52q.08,4.95.13,9.88a3.84,3.84,0,0,1,0,.48,1,1,0,0,1-.16.3,1.37,1.37,0,0,1-.29-.24,1.63,1.63,0,0,1-.18-.45,34.2,34.2,0,0,0-2.28-5.14A16.28,16.28,0,0,0,319,32.92a6.38,6.38,0,0,0-4.53-2.29c-.9-.08-1.81-.11-2.72-.11-2.46,0-4.93,0-7.39,0h-.55a.31.31,0,0,0-.33.35c0,.16,0,.32,0,.48V47.87a5,5,0,0,0,.58.06c1.86,0,3.72,0,5.58,0a4.89,4.89,0,0,0,4.6-2.81A20.33,20.33,0,0,0,315.7,41a2.24,2.24,0,0,1,.14-.46.3.3,0,0,1,.24-.12s.12.1.13.16a2,2,0,0,1,0,.43V55.68a.48.48,0,0,1,0,.12c0,.18.11.47-.19.49s-.24-.29-.29-.46c-.39-1.19-.74-2.39-1.15-3.57a8.29,8.29,0,0,0-.73-1.38A4.56,4.56,0,0,0,310,48.71c-2-.08-4.08,0-6.12,0a1.88,1.88,0,0,0-.34.06c0,.23,0,.44,0,.66V66.91c0,.12,0,.24,0,.36a.34.34,0,0,0,.37.38h.42c3.18,0,6.35,0,9.52,0a11.4,11.4,0,0,0,3.53-.48A7.34,7.34,0,0,0,321,64.61a16.41,16.41,0,0,0,2.14-3.72c.57-1.31,1.08-2.65,1.61-4,.1-.28.19-.54.55-.55Z"/><path class="cls-1" d="M325.25,76c-.32,0-.64,0-1,0H63.37v-.67l.08-.07.06,0,.05,0H325.25Z"/><path class="cls-1" d="M0,52.73a4.73,4.73,0,0,0,.64-.31A13.4,13.4,0,0,1,5.4,50.56a9.64,9.64,0,0,1,6.76,1.23A19.46,19.46,0,0,1,13.83,53a1.1,1.1,0,0,0,.71.27h3.82c.54,0,.57,0,.58-.61V40.4c0-.18,0-.36,0-.54s-.16-.43-.43-.48a7.4,7.4,0,0,1-1.17-.28,3.68,3.68,0,0,1-2.53-3.38c0-.32,0-.64,0-1V24.27c0-.28,0-.55,0-.91H12.69V21.84a2.28,2.28,0,0,1,1.13-.08,2.16,2.16,0,0,0,1.3-.39,14.58,14.58,0,0,0,6.13-8.15,16.52,16.52,0,0,0,.81-4.51,14.5,14.5,0,0,1,.6-3.27.54.54,0,0,1,.23-.33c.12.48.28.95.36,1.43a14.29,14.29,0,0,1,.34,2.51,13.78,13.78,0,0,0,3,8.53,17.7,17.7,0,0,0,4,3.76,1.92,1.92,0,0,0,1.35.41c.35,0,.71,0,1.12,0v1.57l-1.94.06a22.47,22.47,0,0,0-.05,4.22c1.22.13,2.46,0,3.76.08a7.3,7.3,0,0,1-1,1.4.48.48,0,0,1-.33.1H29.68a1.57,1.57,0,0,1-.23-.06c0-.22,0-.46,0-.69,0-1.8,0-3.6,0-5.4a1,1,0,0,0-.45-.9,17.17,17.17,0,0,1-6-7.68,3.21,3.21,0,0,0-.23-.45c-.12.26-.21.43-.28.61a15.78,15.78,0,0,1-5.77,7.6.78.78,0,0,0-.36.7c0,4.14,0,8.28,0,12.43,0,1.72,1.06,2.4,2.64,2.52.46,0,.92,0,1.37,0,.14.48.19,15.82.06,16.88a5.73,5.73,0,0,1-.61.06H14a1.33,1.33,0,0,1-.93-.35A9.39,9.39,0,0,0,2.59,53.12a22.91,22.91,0,0,0-2,1.19L0,54.67Z"/><path class="cls-1" d="M0,58.55c.22-.14.45-.26.66-.42a10.11,10.11,0,0,1,4.23-2,8.83,8.83,0,0,1,5.5.67,10.2,10.2,0,0,1,2.44,1.55,1.92,1.92,0,0,0,1.37.48c3.34,0,6.67,0,10,0h.67c.32.5.14,1,.27,1.6H13.38a1.38,1.38,0,0,1-1-.37,9.64,9.64,0,0,0-4-2.17A7.84,7.84,0,0,0,1,59.85c-.34.29-.66.58-1,.88Z"/><path class="cls-1" d="M0,68.73a5.75,5.75,0,0,0,1.86,1A4.77,4.77,0,0,0,6,68.79l.49-.39a4.89,4.89,0,0,0,3,1.46,5.47,5.47,0,0,0,3.3-1c0,.39,0,.66,0,.93a.53.53,0,0,1-.36.56A5.44,5.44,0,0,1,7,70.23a1.37,1.37,0,0,1-.2-.13.58.58,0,0,0-.77,0,6.43,6.43,0,0,1-2.25.83,5.21,5.21,0,0,1-3.23-.5A5.42,5.42,0,0,0,0,70.18Z"/><path class="cls-1" d="M0,62.67a1.57,1.57,0,0,1,.32.15A4.54,4.54,0,0,0,6,62.63l.48-.34a4.55,4.55,0,0,0,6.11.49c.06.07.1.1.1.12,0,1.23.28,1.1-1.06,1.59A5.23,5.23,0,0,1,6.86,64c-.13-.09-.27-.16-.43-.25L5.9,64a5.6,5.6,0,0,1-5.45.18A2.11,2.11,0,0,0,0,64.12Z"/><path class="cls-1" d="M0,65.7c.12.07.25.13.36.21a4.31,4.31,0,0,0,4.94.23c.38-.21.73-.49,1.15-.76l.4.29a4.33,4.33,0,0,0,5.32.42l.49-.29c0,.24,0,.43,0,.62s0,.4,0,.62a5.47,5.47,0,0,1-3.11.85,4.79,4.79,0,0,1-2.68-.8.81.81,0,0,0-1,0,5.54,5.54,0,0,1-5.54.19,1.59,1.59,0,0,0-.39-.1Z"/><path class="cls-1" d="M22.68,0l-.05,3c-.09,0-.13,0-.16,0a3.44,3.44,0,0,0-2.76.11,3.55,3.55,0,0,1-1.54.23,2.09,2.09,0,0,1-1.81-1.48l.53.1a3.33,3.33,0,0,0,3-.79A4.13,4.13,0,0,1,22,.1c.05,0,.1-.07.15-.1Z"/><path class="cls-1" d="M96.37,29.9a4.4,4.4,0,0,1,.51,0c3.55,0,7.11,0,10.67,0,.48,0,.61.24.76.6q3,7.38,6,14.75,3.27,8,6.55,16.09c.08.2.18.39.27.58.37-.08.38-.36.46-.56L124.07,55q4.8-12.26,9.59-24.52c.24-.6.24-.6.8-.6,9.24,0,18.47,0,27.71,0A18.81,18.81,0,0,1,170,31.56a11,11,0,0,1,2.58,1.68,7.58,7.58,0,0,1-.24,11.51,12.7,12.7,0,0,1-5.07,2.47c-.8.21-1.62.33-2.43.5-.12,0-.24.08-.41.14a.82.82,0,0,0,.68.29,20.91,20.91,0,0,1,5.18,1.11,10.77,10.77,0,0,1,4.4,2.69,7.35,7.35,0,0,1,2.05,4.74c.26,4.35-1.73,7.43-5.46,9.48A17.33,17.33,0,0,1,165.76,68a33.62,33.62,0,0,1-5.49.37H127.92l0-.15c.08-.08.16-.2.26-.22s.45,0,.66,0c1-.12,2-.24,2.94-.38a2.59,2.59,0,0,0,.74-.25,2.22,2.22,0,0,0,1.43-1.94,12.73,12.73,0,0,0,.08-1.51q0-15.06,0-30.12a1,1,0,0,0-.24-.92,4.44,4.44,0,0,0-.32.59c-.83,2.08-1.65,4.16-2.48,6.25Q125.36,53.82,119.75,68l0,.06c-.13.2-.09.62-.41.57s-.32-.37-.42-.6q-7.17-17.24-14.35-34.48c-.11-.26-.13-.6-.51-.75a1.14,1.14,0,0,0-.13.31,2,2,0,0,0,0,.42q0,14.16,0,28.31a13.17,13.17,0,0,0,.24,2.34,3.61,3.61,0,0,0,2.11,2.64,11.07,11.07,0,0,0,2.71.84c.49.1,1,.16,1.48.26.09,0,.16.13.24.2-.08.06-.16.16-.26.18a1.46,1.46,0,0,1-.42,0H87.18c-.12-.35,0-.39.25-.4.58,0,1.17-.05,1.75-.14a10.61,10.61,0,0,0,1.93-.45A1.87,1.87,0,0,0,92.47,65a13.38,13.38,0,0,0-.55-2Q90.32,58.46,88.67,54a3.4,3.4,0,0,1-.12-.34A.47.47,0,0,0,88,53.3c-.18,0-.36,0-.54,0H75.21c-.7,0-.71,0-.95.65-.94,2.47-1.89,4.94-2.8,7.42a9.76,9.76,0,0,0-.69,3.43,2.5,2.5,0,0,0,1.5,2.36,8.08,8.08,0,0,0,2.32.64c.34,0,.69.07,1,.13.09,0,.16.14.24.21a1.59,1.59,0,0,1-.27.18,1,1,0,0,1-.24,0q-5.73,0-11.46,0a.87.87,0,0,1-.36,0c-.08,0-.13-.15-.24-.29.3-.08.52-.16.75-.21a6.73,6.73,0,0,0,4.44-3,23.07,23.07,0,0,0,2.14-4.2c1.71-4.23,3.39-8.47,5.08-12.71q3.7-9.27,7.39-18.55l.09-.23c.09-.25.16-.48.52-.49s.45.27.55.53c.22.56.43,1.13.64,1.7q6,15.92,12,31.84a28.4,28.4,0,0,0,1.19,2.64,4.38,4.38,0,0,0,1.37,1.59.8.8,0,0,0,.85.09,4,4,0,0,0,2.59-3.32,13.7,13.7,0,0,0,.15-1.93V35.58A7.74,7.74,0,0,0,103,34.5,4.37,4.37,0,0,0,100.2,31a12.79,12.79,0,0,0-3.45-.83c-.13,0-.26-.06-.38-.09ZM138.56,49v7c0,2.87,0,5.74,0,8.6a2.65,2.65,0,0,0,2.15,2.84,11.29,11.29,0,0,0,3.1.46,24.34,24.34,0,0,0,3-.13,6.71,6.71,0,0,0,2.28-.57,2.43,2.43,0,0,0,1.46-1.94,9.06,9.06,0,0,0,.1-1.27q0-14.94,0-29.87a8.3,8.3,0,0,0-.11-1.32,2.35,2.35,0,0,0-1.3-1.79,5.64,5.64,0,0,0-1-.38,12.75,12.75,0,0,0-3.52-.46,19.37,19.37,0,0,0-3,.26A7.59,7.59,0,0,0,140,31a2.1,2.1,0,0,0-1.25,1.61,9.74,9.74,0,0,0-.13,1.62Q138.56,41.65,138.56,49Zm16.67,18.58.61,0c2,0,4.08,0,6.11,0a16.6,16.6,0,0,0,3.84-.46,6.93,6.93,0,0,0,5.42-5.28,15.68,15.68,0,0,0,.27-6.78A7.51,7.51,0,0,0,166.24,49a14.92,14.92,0,0,0-4.64-.7c-1.9,0-3.8,0-5.7,0-.21,0-.43,0-.67.06Zm0-20.08.65,0h5.82a13.07,13.07,0,0,0,3.12-.39,6.27,6.27,0,0,0,5-5,14,14,0,0,0,0-6.24,6.22,6.22,0,0,0-4.54-4.88,14.12,14.12,0,0,0-3.88-.57c-1.85,0-3.71,0-5.57,0l-.61.06ZM74.82,52.47c1.07.13,12.82.09,13.29,0-.06-.21-.12-.42-.19-.62l-3.06-8.47c-.92-2.52-1.82-5-2.74-7.56a7.53,7.53,0,0,0-.34-.75,1.66,1.66,0,0,0-.29.35C79.27,41.05,77.05,46.73,74.82,52.47Z"/><path class="cls-1" d="M203.83,30c.15-.09.21-.16.27-.17h33.29a28.33,28.33,0,0,1,7.78,1,18.64,18.64,0,0,1,7.54,4.09,16.55,16.55,0,0,1,5.17,9.25,21.44,21.44,0,0,1-1.2,12.66A17.81,17.81,0,0,1,244.12,67.6a23.71,23.71,0,0,1-5.93.72H210.48c-1,0-2,.11-3,.14-1.27,0-2.55.11-3.82.07a6.46,6.46,0,0,1-1.82-.4A4,4,0,0,1,199.55,66a10,10,0,0,1-.87-3.07c-.3-2.24-.56-4.48-.87-6.72a23.15,23.15,0,0,0-.55-2.73,4.74,4.74,0,0,0-4-3.65,18.63,18.63,0,0,0-3.06-.35c-2.1-.06-4.2,0-6.31,0-.15,0-.31,0-.52,0,0,.22-.05.41-.05.6V64.5c0,.12,0,.24,0,.36a2.54,2.54,0,0,0,2,2.58,12.6,12.6,0,0,0,3.16.48c.27,0,.53,0,.79,0,.1,0,.19.13.27.19l-.07.13a.09.09,0,0,1-.05,0l-16.67,0a2.17,2.17,0,0,1-.36,0s-.06,0-.16-.12c.09-.09.17-.22.26-.23a6.78,6.78,0,0,1,.78,0,14.69,14.69,0,0,0,3.29-.48,2.67,2.67,0,0,0,2.16-2.58c0-.36,0-.73,0-1.09V34.32a10.7,10.7,0,0,0-.1-1.39,2.33,2.33,0,0,0-1.47-2,9,9,0,0,0-1.91-.54c-.88-.14-1.77-.17-2.65-.26a2.64,2.64,0,0,1-.42-.11c.24-.25.47-.18.68-.18,1.78,0,3.55,0,5.33,0,3.92,0,7.85-.05,11.76,0a22.44,22.44,0,0,1,8.44,1.67,10.17,10.17,0,0,1,4.08,2.95,7.15,7.15,0,0,1,1.59,4.18,8.14,8.14,0,0,1-4.18,7.84,17.87,17.87,0,0,1-5.42,2c-.47.11-1,.17-1.42.27-.19,0-.37.11-.55.16v.13a1.81,1.81,0,0,0,.34.13,24.13,24.13,0,0,1,4.37.94,7.71,7.71,0,0,1,5.15,5.44,30.1,30.1,0,0,1,.84,4.51,24.17,24.17,0,0,0,.85,4.21,8.33,8.33,0,0,0,.64,1.43,3.57,3.57,0,0,0,2.69,1.76,2.86,2.86,0,0,0,3.18-2.41,13,13,0,0,0,.09-1.39V34.35a10.7,10.7,0,0,0-.1-1.39,2.33,2.33,0,0,0-1.51-2,9.28,9.28,0,0,0-1.92-.53c-.93-.14-1.88-.17-2.83-.26A2.92,2.92,0,0,1,203.83,30Zm28.39,37.56c.22,0,.37.06.53.06a72.17,72.17,0,0,0,7.5-.2,21.25,21.25,0,0,0,4-.76,10.46,10.46,0,0,0,7-6.32,20.47,20.47,0,0,0,.76-2.29,34,34,0,0,0,.94-7.92,43.92,43.92,0,0,0-.31-6.88,21.31,21.31,0,0,0-1.35-5.39,10.75,10.75,0,0,0-7.3-6.54,23.12,23.12,0,0,0-5.79-.82c-1.8-.05-3.59,0-5.39,0-.19,0-.39,0-.6.05Zm-4.59-18.51V34.37a10,10,0,0,0-.1-1.45,2.41,2.41,0,0,0-1.42-2,6.72,6.72,0,0,0-.85-.32,12.77,12.77,0,0,0-3.53-.46,23.73,23.73,0,0,0-3.25.26,7,7,0,0,0-1.73.5A2.4,2.4,0,0,0,215.22,33a11.73,11.73,0,0,0-.08,1.33V63.72a10,10,0,0,0,.06,1.09,2.64,2.64,0,0,0,2.17,2.63,12.13,12.13,0,0,0,3.16.46,29.52,29.52,0,0,0,3.26-.13,6.71,6.71,0,0,0,2.28-.57,2.43,2.43,0,0,0,1.46-2,10.1,10.1,0,0,0,.1-1.45ZM183.36,30.55V48.7c.23,0,.43,0,.62,0,1.76,0,3.52,0,5.27,0a18.79,18.79,0,0,0,4-.47,6.39,6.39,0,0,0,5.22-5,16.52,16.52,0,0,0,.15-6.68,6.44,6.44,0,0,0-4.41-5.17l-.52-.16a18.1,18.1,0,0,0-5-.71c-1.56,0-3.11,0-4.67,0C183.83,30.51,183.63,30.53,183.36,30.55Z"/><path class="cls-1" d="M64.81,62.31a2.16,2.16,0,0,1-.1.25,43.38,43.38,0,0,1-5.25,7,18.45,18.45,0,0,1-9,5.34,21.36,21.36,0,0,1-5,.67,34.43,34.43,0,0,1-3.94-.13c-4.66-.5-8.61-2.34-11.38-6.3a18.13,18.13,0,0,1-2.8-6.9,32,32,0,0,1-.4-9,46,46,0,0,1,8.26-22.78,36.76,36.76,0,0,1,10-9.87,29.45,29.45,0,0,1,10.69-4.37,27.82,27.82,0,0,1,5.23-.49,15.45,15.45,0,0,1,5.58.95,10.19,10.19,0,0,1,6.54,7.54,16.37,16.37,0,0,1,.28,5.71A30.89,30.89,0,0,1,66,46.73a20.75,20.75,0,0,1-7.2,5.53,14.28,14.28,0,0,1-7,1.26,8.72,8.72,0,0,1-4.68-1.63,7.27,7.27,0,0,1-2.89-5.13,15.57,15.57,0,0,1,3.49-11.93,17.1,17.1,0,0,1,10.43-6.34,2.53,2.53,0,0,1,.55,0l0,.14c-.16.06-.3.14-.46.19A17.21,17.21,0,0,0,46.52,42a13.85,13.85,0,0,0,0,5.77A7.1,7.1,0,0,0,47.45,50a5.92,5.92,0,0,0,4.42,2.76,11.93,11.93,0,0,0,8.28-2,19.42,19.42,0,0,0,5.37-5.28,31.51,31.51,0,0,0,5.36-13.12,19.45,19.45,0,0,0-.15-7.75,10.19,10.19,0,0,0-3.64-5.92,10.33,10.33,0,0,0-4.75-2,17.66,17.66,0,0,0-11.06,2,30.24,30.24,0,0,0-7,4.93,46.4,46.4,0,0,0-10.92,15.2,37.13,37.13,0,0,0-2.49,8.45,48.2,48.2,0,0,0-.87,10.24,23.2,23.2,0,0,0,1.84,9,12.92,12.92,0,0,0,7,7.07,15.86,15.86,0,0,0,4.57,1.07,18.9,18.9,0,0,0,4,0,17.16,17.16,0,0,0,7.56-2.72,25.61,25.61,0,0,0,5.51-5C61.79,65.47,62.89,64,64,62.6,64.21,62.35,64.37,62.08,64.81,62.31Z"/><path class="cls-1" d="M281.32,51.42c.17-.17.23-.28.3-.29a2.46,2.46,0,0,1,.54,0h14.31a2.54,2.54,0,0,1,.48,0c.09,0,.17.12.38.29-.57.08-1,.12-1.42.2a13,13,0,0,0-1.77.39,2.16,2.16,0,0,0-1.53,1.86,10.16,10.16,0,0,0-.13,1.56c0,3.17,0,6.35,0,9.52a1.1,1.1,0,0,1-.68,1.12,26.72,26.72,0,0,1-8.42,2.9,21.12,21.12,0,0,1-17.08-4.43,18.35,18.35,0,0,1-6-10.26,23.62,23.62,0,0,1-.46-7.11,19.77,19.77,0,0,1,15.54-17.87A20.76,20.76,0,0,1,281.2,29,22.74,22.74,0,0,1,289,31c.46.21.47.2.82-.18L291.44,29c.15-.16.31-.3.46-.46.29.2.2.44.2.64V39.88a3.85,3.85,0,0,1,0,.48.25.25,0,0,1-.13.18c-.08,0-.22,0-.26-.07a2.68,2.68,0,0,1-.26-.47,30.31,30.31,0,0,0-2.8-5.09,19.77,19.77,0,0,0-1.82-2.26,9.76,9.76,0,0,0-6.18-3,13.56,13.56,0,0,0-6.38.67,12.09,12.09,0,0,0-6.4,5.65,20.68,20.68,0,0,0-2.3,6.79,36.74,36.74,0,0,0-.48,7.18,27.23,27.23,0,0,0,1.7,9.24,15.88,15.88,0,0,0,3.63,5.67,12.78,12.78,0,0,0,7.77,3.7,14.77,14.77,0,0,0,8.35-1.47c1.43-.73,1.43-.75,1.43-2.34q0-4.46,0-8.91c0-.36,0-.72,0-1.09a2.76,2.76,0,0,0-1.83-2.55,9.71,9.71,0,0,0-2.77-.58Z"/><path class="cls-1" d="M28.87,70.62H15.07A73.26,73.26,0,0,1,15,62.7c.41-.14,9.65-.18,10.5,0l.35,1.49c-1.63.08-3.15,0-4.68,0s-3.06,0-4.64,0c0,.29-.05.51-.05.73v3.45c0,.74,0,.75.74.75,3.32,0,6.63,0,9.94,0a1.05,1.05,0,0,1,1.15.64A8.08,8.08,0,0,0,28.87,70.62Z"/><path class="cls-1" d="M32.55,62.63H46.41a72.09,72.09,0,0,1,.08,7.94,3.11,3.11,0,0,1-.44.08H37.87a1,1,0,0,1-.72-.25,6.12,6.12,0,0,1-1.31-1.29h9.09c.09-1.66.06-3.24,0-4.89l-.75,0H33.29a.38.38,0,0,1-.4-.3C32.79,63.49,32.67,63.09,32.55,62.63Z"/><path class="cls-1" d="M32.13,60.39,32,59l.11-.11,0,0,.48,0,13.58,0s.07,0,.15.08v1.4C45.92,60.47,33.52,60.52,32.13,60.39Z"/><path class="cls-1" d="M19.24,25.62h1.37a57.09,57.09,0,0,1,0,6.8H19.29A60.55,60.55,0,0,1,19.24,25.62Z"/><path class="cls-1" d="M41.62,29.14c.44-.51.8-.93,1.18-1.34a.52.52,0,0,1,.32-.14c1,0,2,0,3,0a2.49,2.49,0,0,1,0,1.48Z"/></g></g></svg>