<svg xmlns="http://www.w3.org/2000/svg" width="590.835" height="302.122" viewBox="0 0 590.835 302.122">
  <g id="Grupo_7" data-name="Grupo 7" transform="translate(-278.443 -57.873)">
    <path id="Trazado_5" data-name="Trazado 5" d="M326.541,77.708a25.327,25.327,0,0,0-5.06-.447H292.028c-3.612.144-7.773.411-10.5,3.18a11.135,11.135,0,0,0-2.63,5.482,25.87,25.87,0,0,0-.452,5.153v24.012c.139,3.576.4,7.706,3.072,10.465A10.8,10.8,0,0,0,287,128.281a25.243,25.243,0,0,0,5.163.467h29.453c3.607-.144,7.742-.411,10.47-3.154a10.989,10.989,0,0,0,2.677-5.6q.632-11.367.411-22.759H303.166v11.9h18.377v7.192H292.1V89.545h29.438v7.336l13.835-2.759-.534-7.871A9.7,9.7,0,0,0,326.541,77.708Z" transform="translate(0 80.212)" fill="#fff" fill-rule="evenodd"/>
    <path id="Trazado_6" data-name="Trazado 6" d="M325.066,77.985a23.906,23.906,0,0,0-4.8-.426h-29.4l-4.254.334a7.975,7.975,0,0,0-7.439,7.074,24.6,24.6,0,0,0-.426,4.87V113.8l.324,4.243a9.669,9.669,0,0,0,2.317,5.22,9.171,9.171,0,0,0,4.67,2.291,23.558,23.558,0,0,0,4.875.442h29.4l4.249-.334a9.5,9.5,0,0,0,5.2-2.368,9.34,9.34,0,0,0,2.24-4.69c.519-2.923.426-16.578.426-21.069H303.463v8.852h18.376v10.244H289.35V86.791h32.489v7l10.7-2.132-.437-6.468A8.177,8.177,0,0,0,325.066,77.985Z" transform="translate(1.229 81.441)" fill-rule="evenodd"/>
    <g id="Grupo_6" data-name="Grupo 6" transform="translate(279.379 57.873)">
      <path id="Trazado_7" data-name="Trazado 7" d="M329.874,102.176h82.218L443.045,58.8H329.874Z" transform="translate(-66.585 -54.034)" fill="#00833e" fill-rule="evenodd"/>
      <path id="Trazado_8" data-name="Trazado 8" d="M319.079,160.433H435.907l54.819-54.326H369.7Z" transform="translate(-111.249 141.69)" fill="#00833e" fill-rule="evenodd"/>
      <path id="Trazado_9" data-name="Trazado 9" d="M342.089,142.649,392.5,82.734V198.039h-50.41Z" transform="translate(-16.046 44.99)" fill="#76bc21" fill-rule="evenodd"/>
      <path id="Trazado_10" data-name="Trazado 10" d="M396.038,180.818h55.686v124.85h-122.8V57.873H446.965v4.766H333.693V300.9H446.958V185.584h-50.92Z" transform="translate(-70.505 -57.873)" fill="#095540" fill-rule="evenodd"/>
      <path id="Trazado_11" data-name="Trazado 11" d="M331.712,143.084H385.02l50.415-60.353h-50.92Z" transform="translate(-58.982 44.98)" fill="#00833e" fill-rule="evenodd"/>
      <path id="Trazado_12" data-name="Trazado 12" d="M369.739,305.7V57.873l-50.676,48.6.246,253.381Z" transform="translate(-111.317 -57.873)" fill="#76bc21" fill-rule="evenodd"/>
      <rect id="Rectángulo_6" data-name="Rectángulo 6" width="588.965" height="39.132" transform="translate(0 161.836)" fill="#007936"/>
      <path id="Trazado_13" data-name="Trazado 13" d="M306.413,99.527l16.209,22.095h5.091L342.784,99.5l-.022,29.239h13.061V77.26h-11.6l-19.069,27.381L304.711,77.26H293.948v51.483h12.54Z" transform="translate(-215.225 22.343)" fill="#fff" fill-rule="evenodd"/>
      <path id="Trazado_14" data-name="Trazado 14" d="M324.357,116.332V89.545h31.462v26.787ZM310.7,91.081v23.992c.139,3.576.4,7.722,3.072,10.48a10.881,10.881,0,0,0,5.487,2.728,25.244,25.244,0,0,0,5.163.467h31.436c3.386-.026,7.8-.452,10.445-3.129a10.966,10.966,0,0,0,2.646-5.528c.6-3.386.411-23.766.447-29.088.041-6.92-2.1-12.355-8.595-13.291a24.78,24.78,0,0,0-5.045-.452H324.28c-3.668.149-7.737.411-10.491,3.17C311.369,82.856,310.619,87.5,310.7,91.081Z" transform="translate(-145.954 22.34)" fill="#fff" fill-rule="evenodd"/>
      <path id="Trazado_15" data-name="Trazado 15" d="M367.224,96.106q-13.016.046-26.026.005V89.545h26.026Zm-27.537,12.6,27.7.072v7.557h-27.7Zm31.446-30.989a24.779,24.779,0,0,0-5.045-.452H341.809c-9.042.36-12.854,2.784-13.4,11.888-.534,8.867-.94,17.976,9.931,19.409l-11.929,2.759.483,8.122a11.142,11.142,0,0,0,2.754,6.139,10.87,10.87,0,0,0,5.477,2.7,25.16,25.16,0,0,0,5.158.467h26.591c3.56-.144,7.68-.411,10.378-3.134,4.038-4.064,3.354-14.518,2.733-20.159s-4.4-8.477-9.926-9.165l9.807-2.795-.452-7.5A9.737,9.737,0,0,0,371.133,77.714Z" transform="translate(-80.91 22.34)" fill="#fff" fill-rule="evenodd"/>
      <path id="Trazado_16" data-name="Trazado 16" d="M393.891,86.718a9.637,9.637,0,0,0-8.3-9.016l-.087-.01-16.548-.432-18.192.339a9.494,9.494,0,0,0-8.836,8.307,25.524,25.524,0,0,0-.457,5.153v24.012c.139,3.6.391,7.742,3.1,10.506a10.834,10.834,0,0,0,5.471,2.7,25.173,25.173,0,0,0,5.153.467h25.512c3.6-.144,7.7-.4,10.429-3.124,3.637-3.632,3.416-13.547,2.954-18.536L380.5,104.257V116.33H355.134V89.544H380.5v10.881L394.2,97.861V90.926Z" transform="translate(-18.602 22.341)" fill="#fff" fill-rule="evenodd"/>
      <path id="Trazado_17" data-name="Trazado 17" d="M380.331,105.691l7.151-13.624,7.177,13.624ZM353.7,128.747h14.467l5.785-11.153h27l5.8,11.153h15.356L393.524,77.26H381.8Z" transform="translate(32.009 22.341)" fill="#fff" fill-rule="evenodd"/>
      <path id="Trazado_18" data-name="Trazado 18" d="M407.9,89.458l.206,1.783-.062,7.537c-.93.206-23.293.211-24.66.216V89.247l24.346.139Zm13.486,14.3a15.89,15.89,0,0,0,.586-4.536V88.934l-.426-3.735a9.669,9.669,0,0,0-7.6-7.454,20.31,20.31,0,0,0-4.66-.483h-39.6v51.487h13.7V111.06h26a19.266,19.266,0,0,0,7.013-1.32A8.3,8.3,0,0,0,421.388,103.755Z" transform="translate(98.129 22.34)" fill="#fff" fill-rule="evenodd"/>
      <path id="Trazado_19" data-name="Trazado 19" d="M383.687,128.744h50.151V116.417H397.391V108.1h22.07V95.989h-22.07V89.454H433.5V77.26H383.687Z" transform="translate(156.061 22.343)" fill="#fff" fill-rule="evenodd"/>
      <path id="Trazado_20" data-name="Trazado 20" d="M303.649,93.628l18.518,25.242h3.513l17.4-25.543-.025,32.665h10.01V77.557h-9.282l-19.822,28.462L302.718,77.557h-8.473v48.434h9.487Z" transform="translate(-213.997 23.57)" fill-rule="evenodd"/>
      <path id="Trazado_21" data-name="Trazado 21" d="M321.6,116.629V86.791h34.513v29.838ZM310.991,89.837v23.951l.324,4.249a9.686,9.686,0,0,0,2.317,5.225,9.208,9.208,0,0,0,4.675,2.291,23.83,23.83,0,0,0,4.87.442H354.6c3.072-.123,6.961-.272,9.376-2.671a9.307,9.307,0,0,0,2.235-4.721,24.754,24.754,0,0,0,.421-4.886V89.77c-.216-5.708-1.176-10.722-7.285-11.775a23.34,23.34,0,0,0-4.819-.437H323.11l-4.249.334a9.414,9.414,0,0,0-5.22,2.389C311.4,82.542,310.95,86.842,310.991,89.837Z" transform="translate(-144.723 23.568)" fill-rule="evenodd"/>
      <path id="Trazado_22" data-name="Trazado 22" d="M369.595,77.99a23.312,23.312,0,0,0-4.783-.432H340.584l-4.223.334a9.26,9.26,0,0,0-5.189,2.379c-3.452,3.5-2.646,13.131-2.307,17.724a9.829,9.829,0,0,0,2.291,5.3,9.076,9.076,0,0,0,4.655,2.286,23.546,23.546,0,0,0,4.844.437h26.966v10.609H336.88v-7.691l-10.157,2.348.4,6.751a9.624,9.624,0,0,0,2.332,5.245,9.255,9.255,0,0,0,4.665,2.276,23.809,23.809,0,0,0,4.865.437h26.545l4.192-.329a9.354,9.354,0,0,0,5.163-2.353c3.56-3.586,2.615-14.446,2.3-18.921a8.164,8.164,0,0,0-6.951-7.552,23.235,23.235,0,0,0-4.768-.437H338.385V86.791h29.078v7.064l9.525-2.718c0-1.551-.159-4.351-.37-6.155A8.218,8.218,0,0,0,369.595,77.99Z" transform="translate(-79.623 23.568)" fill-rule="evenodd"/>
      <path id="Trazado_23" data-name="Trazado 23" d="M391.141,85.586a8.115,8.115,0,0,0-6.987-7.6c-3.725-.617-30.511-.488-34.508-.092a7.979,7.979,0,0,0-7.444,7.059,24.22,24.22,0,0,0-.431,4.87v23.966l.324,4.249a9.608,9.608,0,0,0,2.337,5.245,9.19,9.19,0,0,0,4.66,2.271,23.462,23.462,0,0,0,4.865.442h25.461l4.208-.329a9.417,9.417,0,0,0,5.2-2.348c3.134-3.154,2.62-12.551,2.62-16.193L380.794,104.9v11.724H352.379V86.789h28.415V97.361l10.655-1.993V89.753Z" transform="translate(-17.372 23.57)" fill-rule="evenodd"/>
      <path id="Trazado_24" data-name="Trazado 24" d="M375.74,105.988l9.674-18.428,9.7,18.428ZM354.2,125.993h10.968l5.79-11.153h28.852l5.8,11.153h11.842l-26.9-48.436h-9.92Z" transform="translate(34.078 23.57)" fill-rule="evenodd"/>
      <path id="Trazado_25" data-name="Trazado 25" d="M406.847,86.631a2.141,2.141,0,0,1,1.038.478c.8.807.652,9.134.457,10.573-.226,1.659-2.076,1.552-3.288,1.608H380.636V86.482Zm11.831,15.536a14.266,14.266,0,0,0,.545-4.161V87.787l-.406-3.565a8.074,8.074,0,0,0-6.406-6.211,18.645,18.645,0,0,0-4.336-.452H369.981v48.436h10.655V108.306h27.521C412.617,108.1,417.338,107.361,418.679,102.167Z" transform="translate(99.354 23.569)" fill-rule="evenodd"/>
      <path id="Trazado_26" data-name="Trazado 26" d="M383.984,125.991h47.1v-9.277H394.639V105.343h22.07V96.285h-22.07V86.7h36.109V77.557H383.984Z" transform="translate(157.289 23.57)" fill-rule="evenodd"/>
      <path id="Trazado_27" data-name="Trazado 27" d="M819.719,123.238V77.854h43.72v6.093H827.328V96.58H849.4v6.011h-22.07v14.421h36.445v6.227Zm-71.934,0V77.854h36.578c3.4,0,5.862.688,7.357,2.081,1.51,1.392,2.256,3.632,2.256,6.709V96.785c0,3.062-.745,5.292-2.256,6.684-1.495,1.392-3.956,2.081-7.357,2.081h-28.97v17.688ZM781.4,83.731H755.393V99.585H781.4c1.86,0,3.134-.349,3.838-1.069a5.2,5.2,0,0,0,1.058-3.694V88.494a5.194,5.194,0,0,0-1.058-3.694C784.538,84.081,783.264,83.731,781.4,83.731Zm-113.63,39.507,24.768-45.384h8.117l25.209,45.384h-8.328l-5.8-11.153h-30.7l-5.79,11.153Zm16.445-16.953h24.428L696.411,83.053ZM641.872,84.04H610.4v32.885h31.467V105.55l7.6,1.582V112.5c0,4.192-.729,7.023-2.183,8.518-1.464,1.48-4.264,2.225-8.379,2.225H613.5c-4.115,0-6.93-.745-8.425-2.255-1.48-1.495-2.23-4.326-2.23-8.487V88.581c0-4.146.75-6.977,2.23-8.472,1.495-1.51,4.31-2.255,8.425-2.255h25.415c4.115,0,6.915.745,8.379,2.225q2.181,2.242,2.183,8.5v4.295l-7.6,1.418Zm-75.587,0H534.166V96.7h28.605c4.028,0,6.781.75,8.276,2.23,1.485,1.495,2.229,4.305,2.229,8.472v5.1c0,4.192-.735,7.023-2.183,8.518q-2.2,2.219-8.323,2.225h-26.5c-4.13,0-6.93-.745-8.425-2.255q-2.219-2.242-2.225-8.487v-1.243l7.033-1.629v7.3h33.794v-13.66H537.942c-4.115,0-6.915-.745-8.379-2.255-1.454-1.495-2.183-4.326-2.183-8.472V88.581c0-4.146.729-6.977,2.183-8.472,1.464-1.51,4.264-2.255,8.379-2.255h24.182c4.033,0,6.817.73,8.338,2.209,1.541,1.469,2.3,4.064,2.3,7.752v.94l-6.478,1.849ZM444.718,88.6c0-4.136.729-6.946,2.209-8.472q2.219-2.266,8.441-2.271h31.379c4.089,0,6.869.745,8.353,2.255,1.48,1.5,2.209,4.326,2.209,8.487v23.9c0,4.192-.73,7.023-2.209,8.518q-2.227,2.219-8.353,2.225H455.368q-6.219,0-8.441-2.271c-1.48-1.526-2.209-4.336-2.209-8.472Zm7.562,28.328h37.56V84.04H452.28ZM364.8,85.971c.1.879.19,1.819.247,2.785.062.981.087,2.271.087,3.868v30.614H358.7V77.854h6.186L386.937,107.4l20.575-29.545h6.961v45.384h-6.961V92.624c0-.4.041-1.408.144-3.031s.164-2.831.19-3.622c-.57,1.171-1.069,2.153-1.521,2.959a22.5,22.5,0,0,1-1.171,1.937L387.8,116.118h-1.932L367.841,91.556a3.375,3.375,0,0,1-.221-.308A19.324,19.324,0,0,1,364.8,85.971ZM322.139,84.04H286.6v32.885h35.541v-13.3H303.762v-5.8H329.7v14.683c0,4.146-.75,6.977-2.23,8.472-1.495,1.51-4.3,2.255-8.425,2.255H289.691c-4.161,0-6.961-.76-8.441-2.271-1.48-1.526-2.214-4.336-2.214-8.456V88.6q0-6.18,2.214-8.472c1.48-1.51,4.279-2.271,8.441-2.271h29.355c4.074,0,6.858.73,8.384,2.209,1.505,1.485,2.271,4.151,2.271,8.02V89.2L322.139,90.7Z" transform="translate(-276.924 24.799)" fill="#007936"/>
      <path id="Trazado_28" data-name="Trazado 28" d="M763.007,97.179a11.482,11.482,0,0,0-3.617-2.718,10.032,10.032,0,0,0-4.249-.884,9.576,9.576,0,0,0-6.756,2.872,9.567,9.567,0,0,0-2.029,3.144,10.449,10.449,0,0,0-.678,3.838,10.744,10.744,0,0,0,.4,3.036,8.751,8.751,0,0,0,1.212,2.548,9.937,9.937,0,0,0,3.493,3.108,9.831,9.831,0,0,0,8.682.154,10.918,10.918,0,0,0,3.54-2.795v3.73a13.437,13.437,0,0,1-7.979,2.584,12.207,12.207,0,0,1-3.653-.555,12.4,12.4,0,0,1-3.324-1.623,12.027,12.027,0,0,1-5.312-10.157,12.988,12.988,0,0,1,.915-4.968,11.866,11.866,0,0,1,2.785-4.059,12.065,12.065,0,0,1,4.007-2.61,13.4,13.4,0,0,1,8.765-.241,14.316,14.316,0,0,1,3.8,1.927ZM713.718,115.17V91.528h2.81v20.966h8.929v2.677Zm-30.11,0V91.528h2.815v20.966h8.929v2.677ZM629.629,93.907v7.906h2.142c2.2,0,3.673-.277,4.413-.848a3.486,3.486,0,0,0,1.115-2.959,3.868,3.868,0,0,0-1.146-3.19q-1.148-.909-4.382-.909ZM626.88,115.17V91.528h5.554a16.18,16.18,0,0,1,3.483.267,5.123,5.123,0,0,1,1.947.914,5.352,5.352,0,0,1,1.629,2.2,7.756,7.756,0,0,1,.586,3.057,5.722,5.722,0,0,1-1.628,4.418,6.737,6.737,0,0,1-4.757,1.51h-.5l9.032,11.272h-3.57L630.029,103.9h-.4V115.17ZM607.266,103.4a12.241,12.241,0,0,1-.94,4.783,11.922,11.922,0,0,1-2.728,3.987,12.734,12.734,0,0,1-4.125,2.692,12.88,12.88,0,0,1-4.839.94,12.788,12.788,0,0,1-8.944-3.632,12.1,12.1,0,0,1-3.7-8.77,12.139,12.139,0,0,1,.95-4.788,11.981,11.981,0,0,1,2.748-4.012,12.573,12.573,0,0,1,4.11-2.666,13.005,13.005,0,0,1,9.684,0A12.489,12.489,0,0,1,603.6,94.6a11.911,11.911,0,0,1,2.728,4A12.343,12.343,0,0,1,607.266,103.4Zm-12.633,9.756a9.489,9.489,0,0,0,3.689-.73,9.776,9.776,0,0,0,3.159-2.147,9.457,9.457,0,0,0,2.117-3.144,9.623,9.623,0,0,0,.73-3.735,9.812,9.812,0,0,0-.735-3.776,9.526,9.526,0,0,0-2.111-3.165,9.784,9.784,0,0,0-10.588-2.117,9.307,9.307,0,0,0-3.119,2.117,9.733,9.733,0,0,0-2.846,6.941,9.6,9.6,0,0,0,2.846,6.879,9.764,9.764,0,0,0,3.16,2.153A9.515,9.515,0,0,0,594.633,113.151Zm-37.406,2.019V94.21h-6.689V91.528h16.183V94.21h-6.653V115.17ZM533.271,97.179a11.487,11.487,0,0,0-3.617-2.718,10.058,10.058,0,0,0-4.254-.884,9.552,9.552,0,0,0-6.75,2.872,9.5,9.5,0,0,0-2.034,3.144,10.454,10.454,0,0,0-.678,3.838,10.927,10.927,0,0,0,.4,3.036,8.748,8.748,0,0,0,1.212,2.548,9.91,9.91,0,0,0,3.5,3.108,9.831,9.831,0,0,0,8.682.154,10.974,10.974,0,0,0,3.54-2.795v3.73a13.468,13.468,0,0,1-7.979,2.584,12.156,12.156,0,0,1-3.653-.555,12.322,12.322,0,0,1-3.324-1.623A12.014,12.014,0,0,1,513,103.462a12.981,12.981,0,0,1,.915-4.968,11.935,11.935,0,0,1,2.784-4.059,12.118,12.118,0,0,1,4.007-2.61,12.9,12.9,0,0,1,4.8-.863,12.73,12.73,0,0,1,3.966.622,14.419,14.419,0,0,1,3.8,1.927Zm-46.828-6.586L497.2,115.17H494.15l-3.072-7.249H481.84l-3.067,7.249h-3.052Zm0,6.216-3.76,8.7h7.526Zm-37.457-2.9v7.906h2.142c2.2,0,3.673-.277,4.418-.848a3.486,3.486,0,0,0,1.115-2.959,3.853,3.853,0,0,0-1.151-3.19q-1.148-.909-4.382-.909Zm-2.743,21.264V91.528h5.548a16.151,16.151,0,0,1,3.483.267,5.091,5.091,0,0,1,1.947.914,5.367,5.367,0,0,1,1.634,2.2,7.754,7.754,0,0,1,.58,3.057,5.738,5.738,0,0,1-1.623,4.418,6.737,6.737,0,0,1-4.757,1.51h-.5l9.036,11.272h-3.57L449.387,103.9h-.4V115.17Zm-27.66,0V94.21h-6.689V91.528h16.183V94.21h-6.653V115.17Zm-44.783,0V90.593l17.3,18.9V91.528h2.677V116.09l-17.3-18.685V115.17ZM354.186,103.4a12.334,12.334,0,0,1-.94,4.783,11.925,11.925,0,0,1-2.728,3.987,12.7,12.7,0,0,1-4.131,2.692,12.811,12.811,0,0,1-13.779-2.692,12.047,12.047,0,0,1-3.7-8.77,12.228,12.228,0,0,1,.945-4.788,12.075,12.075,0,0,1,2.753-4.012,12.608,12.608,0,0,1,4.1-2.666,13.006,13.006,0,0,1,9.684,0,12.516,12.516,0,0,1,4.12,2.666,11.915,11.915,0,0,1,2.728,4A12.436,12.436,0,0,1,354.186,103.4Zm-12.638,9.756a9.513,9.513,0,0,0,3.694-.73,9.776,9.776,0,0,0,3.16-2.147,9.542,9.542,0,0,0,2.117-3.144,9.72,9.72,0,0,0,.729-3.735,9.911,9.911,0,0,0-.735-3.776,9.626,9.626,0,0,0-8.965-6.006,9.715,9.715,0,0,0-3.735.724,9.378,9.378,0,0,0-3.124,2.117,9.756,9.756,0,0,0-2.841,6.941,9.647,9.647,0,0,0,.719,3.714,9.746,9.746,0,0,0,2.122,3.165,9.877,9.877,0,0,0,3.16,2.153A9.553,9.553,0,0,0,341.548,113.151ZM310.168,97.179a11.484,11.484,0,0,0-3.617-2.718,10.049,10.049,0,0,0-4.249-.884,9.552,9.552,0,0,0-6.756,2.872,9.567,9.567,0,0,0-2.029,3.144,10.452,10.452,0,0,0-.678,3.838,10.744,10.744,0,0,0,.4,3.036,8.631,8.631,0,0,0,1.212,2.548,9.938,9.938,0,0,0,3.494,3.108,9.831,9.831,0,0,0,8.682.154,10.918,10.918,0,0,0,3.54-2.795v3.73a13.436,13.436,0,0,1-7.979,2.584,12.2,12.2,0,0,1-3.653-.555,12.39,12.39,0,0,1-3.324-1.623,12.026,12.026,0,0,1-5.312-10.157,12.984,12.984,0,0,1,.915-4.968,11.863,11.863,0,0,1,2.785-4.059,12.06,12.06,0,0,1,4.007-2.61,13.395,13.395,0,0,1,8.765-.241,14.391,14.391,0,0,1,3.8,1.927Z" transform="translate(-231.971 77.505)" fill="#fff"/>
    </g>
  </g>
</svg>
