<svg width="1280" height="235" viewBox="0 0 1280 235" fill="none" xmlns="http://www.w3.org/2000/svg">
<path d="M118.1 1.70006C111.2 5.10006 106.6 13.9001 96.9999 41.5001C93.5999 51.4001 89.4999 62.4001 87.7999 65.8001C83.2999 75.4001 83.4999 75.3001 48.4999 75.1001C18.1999 74.9001 11.4999 75.6001 5.39994 79.6001C-0.100058 83.2001 -1.40006 89.9001 2.09994 96.5001C5.29994 102.5 11.0999 108.1 26.4999 119.8C56.3999 142.4 58.3999 144.6 57.0999 153C56.6999 155.5 52.5999 168.5 47.9999 181.9C41.9999 199.7 39.5999 208.2 39.1999 213C38.3999 225.2 42.1999 231 51.0999 231C58.1999 231 65.5999 227.8 77.6999 219.5C105.6 200.3 112.5 195.9 116.2 194.8C119.9 193.7 120.7 193.8 125.4 196.3C130.2 198.8 133.9 201.5 158.5 220.2C178.8 235.6 191.8 238.2 197.1 227.8C200.9 220.4 199.4 210.2 190.1 180.7C185.1 164.6 182.6 153.6 183.4 150.6C184.3 146.8 191.3 140.9 209.9 128C230.5 113.7 237.3 108.1 240.6 102.5C245.9 93.4001 242.2 84.6001 231.7 81.5001C225.3 79.6001 206.1 78.1001 187.4 78.0001C179.6 78.0001 170.8 77.6001 167.9 77.0001C160.3 75.6001 158 72.6001 153.1 57.1001C150.9 50.2001 147 37.9001 144.5 29.9001C139 12.3001 134.8 5.10006 128.7 2.10006C123.5 -0.399942 122.5 -0.399942 118.1 1.70006Z" fill="#FFC107"/>
<path d="M378.5 0.900058C375.5 2.20006 371.5 6.20006 368.8 10.6001C365.4 16.1001 362.6 23.0001 355.8 42.5001C352.6 51.8001 348.6 62.3001 347 65.8001C342.6 75.3001 343 75.2001 305 75.4001C270.7 75.5001 268.9 75.8001 263 81.3001C258.7 85.4001 258.2 89.8001 261.4 96.4001C264.5 102.8 270 108.1 287.1 121C306.7 135.8 312.8 140.9 315.1 144.7C317.1 147.9 317.2 148.6 316 154.3C315.4 157.7 311.9 168.6 308.4 178.4C297.9 207.6 296.1 217.2 299.6 224.6C302 229.5 306 231.4 313.2 230.7C320.6 230 327.4 226.3 349 211.2C366.7 198.8 374.9 194 378.4 194C382 194 389.7 199 409 213.6C430.4 229.8 437.9 234 445.5 234C454 234 458 229 458 218.2C458 211.1 456.4 204.6 448.9 179.6C445.4 168 442.9 157.5 442.7 154.3C442.5 148.8 442.5 148.8 448.1 143.6C451.1 140.8 460.3 133.9 468.6 128.3C488 114.9 494.4 109.9 498 104.8C502.2 99.0001 503.2 94.7001 501.4 90.1001C498 81.5001 489.1 79.2001 455 78.3001C426 77.6001 421.5 76.8001 418.4 72.2001C415.8 68.3001 412.5 59.2001 407 40.5001C400 16.7001 395.3 6.40006 389.6 2.70006C386.6 0.700058 381.1 -0.199942 378.5 0.900058Z" fill="#FFC107"/>
<path d="M637.4 1.40007C629.8 4.80007 624.7 14.2001 615 42.5001C608.9 60.5001 605.2 69.0001 602.3 72.2001C600 74.8001 594.4 75.2001 562.2 75.4001C535.9 75.5001 532 75.7001 528.5 77.3001C515.4 83.2001 515.1 93.5001 527.8 105.8C531 109 539.6 116 547 121.6C573.9 141.7 576.7 144.8 575.6 152.4C575.2 154.7 571.1 167.7 566.5 181.5C557 209.5 555.7 216.3 558.4 223.5C560.5 229 563.9 231 570.8 231C577.7 231 587.4 225.8 608 211.4C624.2 200 634.4 194 637.5 194C640.2 194 648.2 198.6 657 205.2C661.7 208.7 670.1 215.1 675.7 219.4C689.7 230 697.6 234 704.4 234C710.5 234 714 231.9 716 227C718.1 221.9 716.7 208.2 712.6 194.5C703.3 163.7 702 158.6 702 153.5C702 148.4 702.2 148 707.3 143.4C710.3 140.7 720.3 133.3 729.5 127C748.8 113.9 759 104.6 760.8 98.5001C763.5 89.0001 757.6 82.5001 743.9 80.0001C740.9 79.4001 726.5 78.6001 712 78.1001C680.4 77.1001 679.2 76.8001 675.5 68.8001C674.2 65.9001 670.1 53.6001 666.5 41.5001C662.8 29.2001 658.3 16.6001 656.3 12.7001C650.8 2.30007 644.2 -1.69992 637.4 1.40007Z" fill="#FFC107"/>
<path d="M896.5 1.40006C888.9 4.70006 884.3 13.0001 874.6 41.1001C864.7 69.8001 862.8 73.4001 856.4 74.6001C854.6 74.9001 839.2 75.3001 822.3 75.4001C791.6 75.5001 791.5 75.5001 786.6 78.0001C777.9 82.4001 775.6 88.3001 779.5 96.4001C782.3 102.3 789.6 109 809.7 124.2C830.3 139.9 835 144.5 835 149.1C835 153.8 832.6 162.2 825.6 181.7C815 211.2 813.9 221.1 820.5 227.7C823.4 230.6 824.4 231 829.2 231C837.6 231 845.9 226.5 874 206.5C887 197.3 894.4 193.7 898.5 194.4C902.2 195.1 909.6 200.1 931 216.4C948.8 229.9 956.5 234 963.7 234C969.1 234 972.3 232.3 974.4 228.2C978.2 220.5 977.1 212.3 968.3 183.5C964.6 171.4 961.7 159.6 961.3 155.7L960.7 148.9L965.6 144.2C968.3 141.6 978.4 134.1 988 127.5C1012.9 110.4 1021 102.1 1021 93.9001C1021 87.5001 1013.8 82.0001 1002.9 80.0001C999.9 79.4001 985.5 78.6001 971 78.1001C939.4 77.1001 938.5 76.9001 934.7 68.8001C933.3 65.8001 929.9 55.7001 927.1 46.4001C917.2 12.6001 913.4 4.70006 905.3 1.40006C901.4 -0.299942 900.3 -0.299942 896.5 1.40006Z" fill="#FFC107"/>
<path d="M1155.5 1.40007C1148.1 4.60007 1143.6 12.8001 1133.5 42.0001C1123.9 69.6001 1121.8 73.4001 1115.2 74.6001C1113.4 75.0001 1098 75.3001 1081.2 75.4001C1053.6 75.5001 1050.1 75.7001 1046.2 77.4001C1037.5 81.2001 1034.7 88.6001 1038.9 96.8001C1041.7 102.2 1052.4 112 1070.1 125.3C1078.7 131.7 1087.7 139.1 1090 141.6C1094.2 146.2 1094.3 146.3 1093.7 152C1093.3 155.2 1089.9 166.7 1086.1 177.6C1077.6 202.2 1077.4 203 1076 210.9C1073.8 223.6 1078.4 231 1088.5 231C1095.7 231 1105.5 225.9 1126 211.6C1142.9 199.7 1152.5 194 1155.7 194C1158.7 194 1166.1 198.2 1175.3 205.2C1200.9 224.6 1205.5 227.9 1210.7 230.5C1214.2 232.3 1218.4 233.5 1222 233.8C1226.9 234.2 1228 233.9 1230.7 231.6C1232.8 229.8 1234.2 227.4 1235 224.1C1236.9 216.2 1235.3 208.7 1224.6 173.5C1222.5 166.9 1220.6 158.7 1220.3 155.2L1219.7 148.9L1224.6 144.2C1227.4 141.6 1237.3 134.2 1246.8 127.7C1277 107 1284 98.1001 1278 88.3001C1273.6 80.9001 1265.7 79.3001 1229.9 78.1001C1198.1 77.1001 1197.6 77.0001 1193.8 68.4001C1192.3 65.1001 1188.4 53.3001 1185 42.1001C1176.2 13.0001 1172 4.60007 1164.3 1.40007C1160.4 -0.29993 1159.3 -0.29993 1155.5 1.40007Z" fill="#FFC107"/>
</svg>
